<svg width="57" height="57" viewBox="0 0 57 57" fill="none" xmlns="http://www.w3.org/2000/svg">
<rect x="0.666626" y="0.800049" width="56" height="56" rx="8" fill="#9D52FF"/>
<g clip-path="url(#clip0_8083_1529)">
<mask id="mask0_8083_1529" style="mask-type:luminance" maskUnits="userSpaceOnUse" x="12" y="12" width="33" height="33">
<path d="M44.6666 12.8H12.6666V44.8H44.6666V12.8Z" fill="white"/>
</mask>
<g mask="url(#mask0_8083_1529)">
<path d="M21.3333 15.4668C19.92 15.4668 18.6133 15.9601 17.5866 16.7868C16.2 17.8801 15.3333 19.5735 15.3333 21.4668C15.3333 22.5868 15.6533 23.6535 16.2 24.5601C16.92 25.7601 18.0533 26.6935 19.4133 27.1468C20.0133 27.3601 20.6533 27.4668 21.3333 27.4668C22.8533 27.4668 24.2266 26.9068 25.28 25.9735C25.7466 25.5735 26.1466 25.0935 26.4666 24.5601C26.7466 24.0935 26.96 23.6001 27.1066 23.0668C27.2533 22.5601 27.3333 22.0135 27.3333 21.4668C27.3333 18.1468 24.6533 15.4668 21.3333 15.4668ZM23.5466 22.4668H22.36V23.7068C22.36 24.2535 21.9066 24.7068 21.36 24.7068C20.8133 24.7068 20.36 24.2668 20.36 23.7068V22.4668H19.0666C18.52 22.4668 18.0666 22.0135 18.0666 21.4668C18.0666 20.9201 18.52 20.4668 19.0666 20.4668H20.36V19.2268C20.36 18.6801 20.8133 18.2268 21.36 18.2268C21.9066 18.2268 22.36 18.6668 22.36 19.2268V20.4668H23.5466C24.0933 20.4668 24.5466 20.9201 24.5466 21.4668C24.5466 22.0135 24.1066 22.4668 23.5466 22.4668Z" fill="white"/>
<path d="M34.0001 41.187L21.5201 42.6536C20.6534 42.7603 19.8801 42.627 19.2267 42.307C18.5334 41.9603 17.9867 41.427 17.6401 40.7203C17.3201 40.067 17.2001 39.307 17.2934 38.4536L18.4267 28.9203C18.5334 28.9603 18.6401 29.0003 18.7467 29.027C19.5601 29.3203 20.4267 29.467 21.3334 29.467C23.2801 29.467 25.1601 28.7603 26.5867 27.4936C27.2001 26.9603 27.7467 26.3203 28.1867 25.5869C28.5601 24.9603 28.8401 24.2936 29.0267 23.6403C29.1201 23.2936 29.2001 22.9203 29.2534 22.5469C29.2667 22.4803 29.2667 22.4136 29.2667 22.3469L29.4934 22.3603L37.6001 30.4803L37.9467 36.3736C38.2801 39.6803 37.1334 40.827 34.0001 41.187Z" fill="white"/>
<path d="M42.0001 26.5065L39.2401 28.2532C38.7201 28.5732 38.0534 28.5065 37.6267 28.0665L31.7201 22.1598C31.2934 21.7332 31.2134 21.0665 31.5334 20.5465L33.2801 17.7865C34.3467 16.1065 36.4801 16.0265 38.0667 17.5865L42.2134 21.7332C43.6667 23.2132 43.5734 25.5065 42.0001 26.5065Z" fill="white"/>
</g>
</g>
<defs>
<clipPath id="clip0_8083_1529">
<rect width="32" height="32" fill="white" transform="translate(12.6666 12.8)"/>
</clipPath>
</defs>
</svg>
