<svg width="57" height="57" viewBox="0 0 57 57" fill="none" xmlns="http://www.w3.org/2000/svg">
<rect x="0.666626" y="0.800049" width="56" height="56" rx="8" fill="#9D52FF"/>
<g clip-path="url(#clip0_8083_554)">
<mask id="mask0_8083_554" style="mask-type:luminance" maskUnits="userSpaceOnUse" x="12" y="12" width="33" height="33">
<path d="M44.6666 12.8H12.6666V44.8H44.6666V12.8Z" fill="white"/>
</mask>
<g mask="url(#mask0_8083_554)">
<path d="M35 17.5468V15.4668C35 14.9201 34.5466 14.4668 34 14.4668C33.4533 14.4668 33 14.9201 33 15.4668V17.4668H24.3333V15.4668C24.3333 14.9201 23.8799 14.4668 23.3333 14.4668C22.7866 14.4668 22.3333 14.9201 22.3333 15.4668V17.5468C18.7333 17.8801 16.9866 20.0268 16.7199 23.2135C16.6933 23.6001 17.0133 23.9201 17.3866 23.9201H39.9466C40.3333 23.9201 40.6533 23.5868 40.6133 23.2135C40.3466 20.0268 38.6 17.8801 35 17.5468Z" fill="white"/>
<path d="M39.3333 25.9199H18C17.2666 25.9199 16.6666 26.5199 16.6666 27.2532V35.4665C16.6666 39.4665 18.6666 42.1332 23.3333 42.1332H29.9066C30.8266 42.1332 31.4666 41.2399 31.1733 40.3732C30.9066 39.5999 30.68 38.7465 30.68 38.1332C30.68 34.0932 33.9733 30.7999 38.0133 30.7999C38.4 30.7999 38.7866 30.8265 39.16 30.8932C39.96 31.0132 40.68 30.3865 40.68 29.5865V27.2665C40.6666 26.5199 40.0666 25.9199 39.3333 25.9199ZM24.9466 36.4132C24.8133 36.5332 24.6666 36.6265 24.5066 36.6932C24.3466 36.7599 24.1733 36.7999 24 36.7999C23.8266 36.7999 23.6533 36.7599 23.4933 36.6932C23.3333 36.6265 23.1866 36.5332 23.0533 36.4132C22.8133 36.1599 22.6666 35.8132 22.6666 35.4665C22.6666 35.3865 22.68 35.2932 22.6933 35.2132C22.7066 35.1199 22.7333 35.0399 22.7733 34.9599C22.8 34.8799 22.84 34.7999 22.8933 34.7199C22.9333 34.6532 23 34.5865 23.0533 34.5199C23.1866 34.3999 23.3333 34.3065 23.4933 34.2399C23.8133 34.1065 24.1866 34.1065 24.5066 34.2399C24.6666 34.3065 24.8133 34.3999 24.9466 34.5199C25 34.5865 25.0666 34.6532 25.1066 34.7199C25.16 34.7999 25.2 34.8799 25.2266 34.9599C25.2666 35.0399 25.2933 35.1199 25.3066 35.2132C25.32 35.2932 25.3333 35.3865 25.3333 35.4665C25.3333 35.8132 25.1866 36.1599 24.9466 36.4132ZM24.9466 31.7465C24.8133 31.8665 24.6666 31.9599 24.5066 32.0265C24.3466 32.0932 24.1733 32.1332 24 32.1332C23.8266 32.1332 23.6533 32.0932 23.4933 32.0265C23.32 31.9599 23.1866 31.8665 23.0533 31.7465C22.8133 31.4932 22.6666 31.1465 22.6666 30.7999C22.6666 30.4532 22.8133 30.1065 23.0533 29.8532C23.1866 29.7332 23.3333 29.6399 23.4933 29.5732C23.8133 29.4399 24.1866 29.4399 24.5066 29.5732C24.6666 29.6399 24.8133 29.7332 24.9466 29.8532C25 29.9199 25.0666 29.9865 25.1066 30.0532C25.16 30.1332 25.2 30.2132 25.2266 30.2932C25.2666 30.3732 25.2933 30.4532 25.3066 30.5332C25.32 30.6265 25.3333 30.7199 25.3333 30.7999C25.3333 31.1465 25.1866 31.4932 24.9466 31.7465ZM29.6133 31.7465C29.36 31.9865 29.0266 32.1332 28.6666 32.1332C28.4933 32.1332 28.32 32.0932 28.16 32.0265C27.9866 31.9599 27.8533 31.8665 27.72 31.7465C27.48 31.4932 27.3333 31.1465 27.3333 30.7999C27.3333 30.7199 27.3466 30.6265 27.36 30.5332C27.3733 30.4532 27.4 30.3732 27.44 30.2932C27.4666 30.2132 27.5066 30.1332 27.56 30.0532C27.6133 29.9865 27.6666 29.9199 27.72 29.8532C28.2133 29.3599 29.1066 29.3599 29.6133 29.8532C29.6666 29.9199 29.72 29.9865 29.7733 30.0532C29.8266 30.1332 29.8666 30.2132 29.8933 30.2932C29.9333 30.3732 29.96 30.4532 29.9733 30.5332C29.9866 30.6265 30 30.7199 30 30.7999C30 31.1465 29.8533 31.4932 29.6133 31.7465Z" fill="white"/>
<path d="M41.7733 34.36C39.6933 32.28 36.3066 32.28 34.2266 34.36C32.1466 36.44 32.1466 39.8267 34.2266 41.9067C36.3066 43.9867 39.6933 43.9867 41.7733 41.9067C43.8533 39.8267 43.8533 36.44 41.7733 34.36ZM40.76 38.88C40.5866 39.0667 40.3333 39.1734 40.0533 39.1734H39.0666V40.2134C39.0666 40.4934 38.96 40.7334 38.7733 40.92C38.5866 41.1067 38.3466 41.2134 38.0666 41.2134C37.52 41.2134 37.0666 40.76 37.0666 40.2134V39.1734H36.0666C35.52 39.1734 35.0666 38.7334 35.0666 38.1734C35.0666 37.6267 35.52 37.1734 36.0666 37.1734H37.0666V36.2267C37.0666 35.68 37.5066 35.2267 38.0666 35.2267C38.6133 35.2267 39.0666 35.68 39.0666 36.2267V37.1734H40.0533C40.6133 37.1734 41.0533 37.6267 41.0533 38.1734C41.0533 38.4534 40.9466 38.7067 40.76 38.88Z" fill="white"/>
</g>
</g>
<defs>
<clipPath id="clip0_8083_554">
<rect width="32" height="32" fill="white" transform="translate(12.6666 12.8)"/>
</clipPath>
</defs>
</svg>
