<svg width="57" height="57" viewBox="0 0 57 57" fill="none" xmlns="http://www.w3.org/2000/svg">
<rect x="0.666626" y="0.800049" width="56" height="56" rx="8" fill="#9D52FF"/>
<g clip-path="url(#clip0_8084_1880)">
<mask id="mask0_8084_1880" style="mask-type:luminance" maskUnits="userSpaceOnUse" x="12" y="12" width="33" height="33">
<path d="M44.6666 12.8H12.6666V44.8H44.6666V12.8Z" fill="white"/>
</mask>
<g mask="url(#mask0_8084_1880)">
<path d="M42 42.1338H15.3333C14.7866 42.1338 14.3333 41.6805 14.3333 41.1338C14.3333 40.5871 14.7866 40.1338 15.3333 40.1338H42C42.5466 40.1338 43 40.5871 43 41.1338C43 41.6805 42.5466 42.1338 42 42.1338Z" fill="white"/>
<path d="M25.6666 18.1337V42.1337H31.6666V18.1337C31.6666 16.667 31.0666 15.467 29.2666 15.467H28.0666C26.2666 15.467 25.6666 16.667 25.6666 18.1337Z" fill="white"/>
<path d="M16.6666 26.1337V42.1337H22V26.1337C22 24.667 21.4666 23.467 19.8666 23.467H18.8C17.2 23.467 16.6666 24.667 16.6666 26.1337Z" fill="white"/>
<path d="M35.3333 32.8002V42.1335H40.6666V32.8002C40.6666 31.3335 40.1333 30.1335 38.5333 30.1335H37.4666C35.8666 30.1335 35.3333 31.3335 35.3333 32.8002Z" fill="white"/>
</g>
</g>
<defs>
<clipPath id="clip0_8084_1880">
<rect width="32" height="32" fill="white" transform="translate(12.6666 12.8)"/>
</clipPath>
</defs>
</svg>
