<svg width="57" height="57" viewBox="0 0 57 57" fill="none" xmlns="http://www.w3.org/2000/svg">
<rect x="0.666626" y="0.800049" width="56" height="56" rx="8" fill="#9D52FF"/>
<g clip-path="url(#clip0_6024_1123)">
<mask id="mask0_6024_1123" style="mask-type:luminance" maskUnits="userSpaceOnUse" x="12" y="12" width="33" height="33">
<path d="M44.6666 12.8H12.6666V44.8H44.6666V12.8Z" fill="white"/>
</mask>
<g mask="url(#mask0_6024_1123)">
<path d="M42.4798 23.8268L42.0931 20.1335C41.5331 16.1068 39.7065 14.4668 35.7998 14.4668H32.6531H30.6798H26.6265H24.6531H21.4531C17.5331 14.4668 15.7198 16.1068 15.1465 20.1735L14.7865 23.8401C14.6531 25.2668 15.0398 26.6535 15.8798 27.7335C16.8931 29.0535 18.4531 29.8001 20.1865 29.8001C21.8665 29.8001 23.4798 28.9601 24.4931 27.6135C25.3998 28.9601 26.9465 29.8001 28.6665 29.8001C30.3865 29.8001 31.8931 29.0001 32.8131 27.6668C33.8398 28.9868 35.4265 29.8001 37.0798 29.8001C38.8531 29.8001 40.4531 29.0135 41.4531 27.6268C42.2531 26.5601 42.6131 25.2135 42.4798 23.8268Z" fill="white"/>
<path d="M27.8001 35.0138C26.1068 35.1871 24.8268 36.6271 24.8268 38.3338V41.9871C24.8268 42.3471 25.1201 42.6405 25.4801 42.6405H31.8401C32.2001 42.6405 32.4934 42.3471 32.4934 41.9871V38.8005C32.5068 36.0138 30.8668 34.6938 27.8001 35.0138Z" fill="white"/>
<path d="M41.1598 32.0004V35.9737C41.1598 39.6537 38.1731 42.6404 34.4931 42.6404C34.1331 42.6404 33.8398 42.3471 33.8398 41.9871V38.8004C33.8398 37.0937 33.3198 35.7604 32.3065 34.8537C31.4131 34.0404 30.1998 33.6404 28.6931 33.6404C28.3598 33.6404 28.0265 33.6537 27.6665 33.6937C25.2931 33.9337 23.4931 35.9337 23.4931 38.3337V41.9871C23.4931 42.3471 23.1998 42.6404 22.8398 42.6404C19.1598 42.6404 16.1731 39.6537 16.1731 35.9737V32.0271C16.1731 31.0937 17.0931 30.4671 17.9598 30.7737C18.3198 30.8937 18.6798 30.9871 19.0531 31.0404C19.2131 31.0671 19.3864 31.0937 19.5464 31.0937C19.7598 31.1204 19.9731 31.1337 20.1864 31.1337C21.7331 31.1337 23.2531 30.5604 24.4531 29.5737C25.5998 30.5604 27.0931 31.1337 28.6665 31.1337C30.2531 31.1337 31.7198 30.5871 32.8665 29.6004C34.0665 30.5737 35.5598 31.1337 37.0798 31.1337C37.3198 31.1337 37.5598 31.1204 37.7865 31.0937C37.9465 31.0804 38.0931 31.0671 38.2398 31.0404C38.6531 30.9871 39.0265 30.8671 39.3998 30.7471C40.2665 30.4537 41.1598 31.0937 41.1598 32.0004Z" fill="white"/>
</g>
</g>
<defs>
<clipPath id="clip0_6024_1123">
<rect width="32" height="32" fill="white" transform="translate(12.6666 12.8)"/>
</clipPath>
</defs>
</svg>
