<svg width="485" height="361" viewBox="0 0 485 361" fill="none" xmlns="http://www.w3.org/2000/svg">
<g clip-path="url(#clip0_8083_545)">
<rect x="0.666656" y="0.800049" width="484" height="360" rx="16" fill="#AB72FF"/>
<g filter="url(#filter0_d_8083_545)">
<path d="M74.1262 38.242V45.452C74.1262 46.2547 73.8789 46.8987 73.3842 47.384C72.8896 47.86 72.2362 48.098 71.4242 48.098C70.6029 48.098 69.9449 47.8553 69.4502 47.37C68.9555 46.8753 68.7082 46.2033 68.7082 45.354H69.9822C69.9915 45.83 70.1129 46.2173 70.3462 46.516C70.5889 46.8147 70.9482 46.964 71.4242 46.964C71.9002 46.964 72.2549 46.824 72.4882 46.544C72.7215 46.2547 72.8382 45.8907 72.8382 45.452V38.242H74.1262ZM76.16 44.136C76.16 43.352 76.3187 42.666 76.636 42.078C76.9534 41.4807 77.3874 41.0187 77.938 40.692C78.498 40.3653 79.1187 40.202 79.8 40.202C80.472 40.202 81.0554 40.3467 81.55 40.636C82.0447 40.9253 82.4134 41.2893 82.656 41.728V40.328H83.944V48H82.656V46.572C82.404 47.02 82.026 47.3933 81.522 47.692C81.0274 47.9813 80.4487 48.126 79.786 48.126C79.1047 48.126 78.4887 47.958 77.938 47.622C77.3874 47.286 76.9534 46.8147 76.636 46.208C76.3187 45.6013 76.16 44.9107 76.16 44.136ZM82.656 44.15C82.656 43.5713 82.5394 43.0673 82.306 42.638C82.0727 42.2087 81.7554 41.882 81.354 41.658C80.962 41.4247 80.528 41.308 80.052 41.308C79.576 41.308 79.142 41.42 78.75 41.644C78.358 41.868 78.0454 42.1947 77.812 42.624C77.5787 43.0533 77.462 43.5573 77.462 44.136C77.462 44.724 77.5787 45.2373 77.812 45.676C78.0454 46.1053 78.358 46.4367 78.75 46.67C79.142 46.894 79.576 47.006 80.052 47.006C80.528 47.006 80.962 46.894 81.354 46.67C81.7554 46.4367 82.0727 46.1053 82.306 45.676C82.5394 45.2373 82.656 44.7287 82.656 44.15ZM89.835 40.188C90.7683 40.188 91.5243 40.4727 92.103 41.042C92.6816 41.602 92.971 42.414 92.971 43.478V48H91.711V43.66C91.711 42.8947 91.5196 42.3113 91.137 41.91C90.7543 41.4993 90.2316 41.294 89.569 41.294C88.897 41.294 88.3603 41.504 87.959 41.924C87.567 42.344 87.371 42.9553 87.371 43.758V48H86.097V40.328H87.371V41.42C87.623 41.028 87.9636 40.7247 88.393 40.51C88.8316 40.2953 89.3123 40.188 89.835 40.188ZM96.3681 46.236L94.8001 50.002H93.9461L94.9681 46.236H96.3681ZM101.196 46.978C102.381 46.026 103.31 45.2467 103.982 44.64C104.654 44.024 105.219 43.3847 105.676 42.722C106.143 42.05 106.376 41.392 106.376 40.748C106.376 40.1413 106.227 39.6653 105.928 39.32C105.639 38.9653 105.167 38.788 104.514 38.788C103.879 38.788 103.385 38.9887 103.03 39.39C102.685 39.782 102.498 40.3093 102.47 40.972H101.238C101.275 39.9267 101.593 39.1193 102.19 38.55C102.787 37.9807 103.557 37.696 104.5 37.696C105.461 37.696 106.222 37.962 106.782 38.494C107.351 39.026 107.636 39.7587 107.636 40.692C107.636 41.4667 107.403 42.2227 106.936 42.96C106.479 43.688 105.956 44.332 105.368 44.892C104.78 45.4427 104.029 46.0867 103.114 46.824H107.93V47.888H101.196V46.978ZM109.403 42.834C109.403 41.2287 109.664 39.978 110.187 39.082C110.709 38.1767 111.624 37.724 112.931 37.724C114.228 37.724 115.138 38.1767 115.661 39.082C116.183 39.978 116.445 41.2287 116.445 42.834C116.445 44.4673 116.183 45.7367 115.661 46.642C115.138 47.5473 114.228 48 112.931 48C111.624 48 110.709 47.5473 110.187 46.642C109.664 45.7367 109.403 44.4673 109.403 42.834ZM115.185 42.834C115.185 42.022 115.129 41.336 115.017 40.776C114.914 40.2067 114.695 39.7493 114.359 39.404C114.032 39.0587 113.556 38.886 112.931 38.886C112.296 38.886 111.811 39.0587 111.475 39.404C111.148 39.7493 110.929 40.2067 110.817 40.776C110.714 41.336 110.663 42.022 110.663 42.834C110.663 43.674 110.714 44.3787 110.817 44.948C110.929 45.5173 111.148 45.9747 111.475 46.32C111.811 46.6653 112.296 46.838 112.931 46.838C113.556 46.838 114.032 46.6653 114.359 46.32C114.695 45.9747 114.914 45.5173 115.017 44.948C115.129 44.3787 115.185 43.674 115.185 42.834ZM118.04 46.978C119.225 46.026 120.154 45.2467 120.826 44.64C121.498 44.024 122.062 43.3847 122.52 42.722C122.986 42.05 123.22 41.392 123.22 40.748C123.22 40.1413 123.07 39.6653 122.772 39.32C122.482 38.9653 122.011 38.788 121.358 38.788C120.723 38.788 120.228 38.9887 119.874 39.39C119.528 39.782 119.342 40.3093 119.314 40.972H118.082C118.119 39.9267 118.436 39.1193 119.034 38.55C119.631 37.9807 120.401 37.696 121.344 37.696C122.305 37.696 123.066 37.962 123.626 38.494C124.195 39.026 124.48 39.7587 124.48 40.692C124.48 41.4667 124.246 42.2227 123.78 42.96C123.322 43.688 122.8 44.332 122.212 44.892C121.624 45.4427 120.872 46.0867 119.958 46.824H124.774V47.888H118.04V46.978ZM132.7 38.984H127.786V42.176C128.001 41.8773 128.318 41.6347 128.738 41.448C129.158 41.252 129.611 41.154 130.096 41.154C130.871 41.154 131.501 41.3173 131.986 41.644C132.472 41.9613 132.817 42.3767 133.022 42.89C133.237 43.394 133.344 43.9307 133.344 44.5C133.344 45.172 133.218 45.774 132.966 46.306C132.714 46.838 132.327 47.258 131.804 47.566C131.291 47.874 130.652 48.028 129.886 48.028C128.906 48.028 128.113 47.776 127.506 47.272C126.9 46.768 126.531 46.096 126.4 45.256H127.646C127.768 45.788 128.024 46.2033 128.416 46.502C128.808 46.8007 129.303 46.95 129.9 46.95C130.638 46.95 131.193 46.7307 131.566 46.292C131.94 45.844 132.126 45.256 132.126 44.528C132.126 43.8 131.94 43.24 131.566 42.848C131.193 42.4467 130.642 42.246 129.914 42.246C129.42 42.246 128.986 42.3673 128.612 42.61C128.248 42.8433 127.982 43.1653 127.814 43.576H126.61V37.864H132.7V38.984Z" fill="white"/>
<rect width="604.487" height="20.2028" transform="translate(68.1342 67.937)" fill="#FAFAFA"/>
<rect x="68.1342" y="67.937" width="86.3553" height="20.2028" fill="white"/>
<rect x="68.1342" y="67.937" width="86.3553" height="20.2028" stroke="#E8E8E8" stroke-width="0.466785"/>
<path d="M74.3324 75.1066H75.327L77.0562 79.3289H77.1199L78.8491 75.1066H79.8436V80.5383H79.0639V76.6078H79.0135L77.4116 80.5304H76.7645L75.1625 76.6051H75.1121V80.5383H74.3324V75.1066ZM85.7534 77.8225C85.7534 78.4024 85.6473 78.901 85.4351 79.3183C85.223 79.7338 84.9321 80.0539 84.5626 80.2784C84.1948 80.5012 83.7766 80.6126 83.3081 80.6126C82.8377 80.6126 82.4178 80.5012 82.0483 80.2784C81.6805 80.0539 81.3905 79.7329 81.1784 79.3157C80.9662 78.8984 80.8601 78.4007 80.8601 77.8225C80.8601 77.2425 80.9662 76.7448 81.1784 76.3293C81.3905 75.912 81.6805 75.592 82.0483 75.3692C82.4178 75.1447 82.8377 75.0324 83.3081 75.0324C83.7766 75.0324 84.1948 75.1447 84.5626 75.3692C84.9321 75.592 85.223 75.912 85.4351 76.3293C85.6473 76.7448 85.7534 77.2425 85.7534 77.8225ZM84.9418 77.8225C84.9418 77.3805 84.8702 77.0083 84.727 76.7059C84.5855 76.4018 84.391 76.1719 84.1435 76.0163C83.8977 75.859 83.6193 75.7803 83.3081 75.7803C82.9951 75.7803 82.7157 75.859 82.47 76.0163C82.2242 76.1719 82.0297 76.4018 81.8865 76.7059C81.745 77.0083 81.6743 77.3805 81.6743 77.8225C81.6743 78.2645 81.745 78.6376 81.8865 78.9417C82.0297 79.2441 82.2242 79.4739 82.47 79.6313C82.7157 79.7869 82.9951 79.8647 83.3081 79.8647C83.6193 79.8647 83.8977 79.7869 84.1435 79.6313C84.391 79.4739 84.5855 79.2441 84.727 78.9417C84.8702 78.6376 84.9418 78.2645 84.9418 77.8225ZM91.1592 75.1066V80.5383H90.406L87.6451 76.5547H87.5947V80.5383H86.7751V75.1066H87.5337L90.2973 79.0955H90.3476V75.1066H91.1592Z" fill="#969696"/>
<rect x="154.49" y="67.937" width="86.3553" height="20.2028" fill="white"/>
<rect x="154.49" y="67.937" width="86.3553" height="20.2028" stroke="#E8E8E8" stroke-width="0.466785"/>
<path d="M160.42 75.8121V75.1066H164.624V75.8121H162.929V80.5383H162.112V75.8121H160.42ZM169.045 75.1066H169.868V78.6791C169.868 79.0593 169.778 79.3961 169.6 79.6896C169.421 79.9814 169.17 80.2112 168.846 80.3792C168.523 80.5454 168.144 80.6285 167.709 80.6285C167.276 80.6285 166.897 80.5454 166.574 80.3792C166.25 80.2112 165.999 79.9814 165.82 79.6896C165.642 79.3961 165.552 79.0593 165.552 78.6791V75.1066H166.372V78.6128C166.372 78.8586 166.426 79.077 166.534 79.2679C166.643 79.4589 166.798 79.6092 166.998 79.7188C167.198 79.8267 167.435 79.8806 167.709 79.8806C167.985 79.8806 168.222 79.8267 168.422 79.7188C168.624 79.6092 168.778 79.4589 168.884 79.2679C168.991 79.077 169.045 78.8586 169.045 78.6128V75.1066ZM171.059 80.5383V75.1066H174.464V75.8121H171.879V77.4671H174.287V78.1699H171.879V79.8328H174.496V80.5383H171.059Z" fill="#969696"/>
<rect x="240.845" y="67.937" width="86.3553" height="20.2028" fill="white"/>
<rect x="240.845" y="67.937" width="86.3553" height="20.2028" stroke="#E8E8E8" stroke-width="0.466785"/>
<path d="M248.106 80.5383L246.6 75.1066H247.462L248.52 79.313H248.571L249.671 75.1066H250.525L251.626 79.3157H251.676L252.732 75.1066H253.597L252.087 80.5383H251.263L250.12 76.4699H250.077L248.934 80.5383H248.106ZM254.344 80.5383V75.1066H257.749V75.8121H255.163V77.4671H257.571V78.1699H255.163V79.8328H257.781V80.5383H254.344ZM260.602 80.5383H258.844V75.1066H260.658C261.19 75.1066 261.647 75.2154 262.029 75.4329C262.411 75.6486 262.704 75.9589 262.907 76.3638C263.112 76.7669 263.215 77.2505 263.215 77.8145C263.215 78.3803 263.111 78.8666 262.904 79.2732C262.699 79.6799 262.402 79.9929 262.013 80.2121C261.624 80.4296 261.154 80.5383 260.602 80.5383ZM259.663 79.8222H260.557C260.971 79.8222 261.315 79.7444 261.589 79.5888C261.863 79.4315 262.068 79.2043 262.204 78.9072C262.34 78.6084 262.408 78.2442 262.408 77.8145C262.408 77.3884 262.34 77.0268 262.204 76.7298C262.07 76.4327 261.869 76.2073 261.602 76.0535C261.335 75.8997 261.004 75.8227 260.608 75.8227H259.663V79.8222Z" fill="#969696"/>
<rect x="327.2" y="67.937" width="86.3553" height="20.2028" fill="white"/>
<rect x="327.2" y="67.937" width="86.3553" height="20.2028" stroke="#E8E8E8" stroke-width="0.466785"/>
<path d="M333.13 75.8121V75.1066H337.334V75.8121H335.639V80.5383H334.822V75.8121H333.13ZM338.263 80.5383V75.1066H339.083V77.4671H341.79V75.1066H342.613V80.5383H341.79V78.1699H339.083V80.5383H338.263ZM347.299 75.1066H348.121V78.6791C348.121 79.0593 348.032 79.3961 347.853 79.6896C347.675 79.9814 347.424 80.2112 347.1 80.3792C346.777 80.5454 346.397 80.6285 345.962 80.6285C345.529 80.6285 345.151 80.5454 344.827 80.3792C344.504 80.2112 344.253 79.9814 344.074 79.6896C343.895 79.3961 343.806 79.0593 343.806 78.6791V75.1066H344.626V78.6128C344.626 78.8586 344.68 79.077 344.787 79.2679C344.897 79.4589 345.052 79.6092 345.252 79.7188C345.451 79.8267 345.688 79.8806 345.962 79.8806C346.238 79.8806 346.476 79.8267 346.676 79.7188C346.877 79.6092 347.031 79.4589 347.137 79.2679C347.245 79.077 347.299 78.8586 347.299 78.6128V75.1066ZM349.313 80.5383V75.1066H351.249C351.67 75.1066 352.019 75.1791 352.296 75.3241C352.576 75.4691 352.784 75.6698 352.922 75.9262C353.06 76.1808 353.129 76.4752 353.129 76.8094C353.129 77.1418 353.059 77.4344 352.92 77.6872C352.782 77.9383 352.573 78.1337 352.294 78.2734C352.016 78.413 351.667 78.4829 351.246 78.4829H349.78V77.7774H351.172C351.437 77.7774 351.653 77.7394 351.819 77.6634C351.987 77.5873 352.11 77.4768 352.188 77.3318C352.265 77.1868 352.304 77.0127 352.304 76.8094C352.304 76.6042 352.265 76.4266 352.185 76.2763C352.107 76.126 351.984 76.011 351.816 75.9315C351.65 75.8501 351.432 75.8095 351.161 75.8095H350.132V80.5383H349.313ZM351.994 78.0877L353.336 80.5383H352.403L351.087 78.0877H351.994Z" fill="#969696"/>
<rect x="413.555" y="67.937" width="86.3553" height="20.2028" fill="white"/>
<rect x="413.555" y="67.937" width="86.3553" height="20.2028" stroke="#E8E8E8" stroke-width="0.466785"/>
<path d="M419.753 80.5383V75.1066H423.122V75.8121H420.573V77.4671H422.88V78.1699H420.573V80.5383H419.753ZM424.13 80.5383V75.1066H426.066C426.487 75.1066 426.836 75.1791 427.113 75.3241C427.393 75.4691 427.601 75.6698 427.739 75.9262C427.877 76.1808 427.946 76.4752 427.946 76.8094C427.946 77.1418 427.876 77.4344 427.737 77.6872C427.599 77.9383 427.39 78.1337 427.111 78.2734C426.833 78.413 426.484 78.4829 426.063 78.4829H424.596V77.7774H425.989C426.254 77.7774 426.47 77.7394 426.636 77.6634C426.804 77.5873 426.927 77.4768 427.005 77.3318C427.082 77.1868 427.121 77.0127 427.121 76.8094C427.121 76.6042 427.081 76.4266 427.002 76.2763C426.924 76.126 426.801 76.011 426.633 75.9315C426.467 75.8501 426.249 75.8095 425.978 75.8095H424.949V80.5383H424.13ZM426.811 78.0877L428.153 80.5383H427.219L425.904 78.0877H426.811ZM429.763 75.1066V80.5383H428.943V75.1066H429.763Z" fill="#969696"/>
<rect x="68.1342" y="88.1399" width="86.3553" height="89.9029" fill="#F8F8F8"/>
<rect x="68.1342" y="88.1399" width="86.3553" height="89.9029" stroke="#E8E8E8" stroke-width="0.466785"/>
<path opacity="0.4" d="M74.4214 103.741V102.961L76.8337 100.462C77.0913 100.191 77.3037 99.9527 77.4708 99.7485C77.6402 99.542 77.7667 99.3459 77.8502 99.1602C77.9337 98.9746 77.9755 98.7773 77.9755 98.5684C77.9755 98.3317 77.9198 98.1275 77.8084 97.9558C77.697 97.7817 77.545 97.6483 77.3524 97.5555C77.1598 97.4603 76.9428 97.4128 76.7015 97.4128C76.4462 97.4128 76.2234 97.465 76.0331 97.5694C75.8428 97.6738 75.6966 97.8212 75.5945 98.0115C75.4924 98.2018 75.4413 98.4246 75.4413 98.6798H74.4145C74.4145 98.2459 74.5142 97.8664 74.7138 97.5416C74.9134 97.2167 75.1872 96.9649 75.5353 96.7862C75.8834 96.6052 76.2791 96.5147 76.7224 96.5147C77.1702 96.5147 77.5648 96.604 77.9059 96.7827C78.2494 96.9591 78.5174 97.2004 78.71 97.5067C78.9026 97.8108 78.9989 98.1542 78.9989 98.5371C78.9989 98.8017 78.949 99.0604 78.8492 99.3134C78.7518 99.5663 78.5812 99.8483 78.3375 100.159C78.0939 100.468 77.755 100.843 77.3211 101.284L75.9043 102.767V102.819H79.1138V103.741H74.4214ZM82.8037 96.5147C83.1216 96.517 83.4349 96.575 83.7435 96.6887C84.0522 96.8024 84.3307 96.9881 84.579 97.2457C84.8296 97.5033 85.0292 97.8514 85.1777 98.29C85.3285 98.7263 85.4051 99.2693 85.4074 99.9191C85.4074 100.543 85.3448 101.099 85.2195 101.586C85.0942 102.071 84.9143 102.481 84.6799 102.815C84.4478 103.149 84.1659 103.404 83.834 103.578C83.5022 103.752 83.1286 103.839 82.7132 103.839C82.2885 103.839 81.9114 103.755 81.5818 103.588C81.2523 103.421 80.9843 103.19 80.7777 102.895C80.5712 102.598 80.4424 102.257 80.3913 101.872H81.453C81.5226 102.178 81.6642 102.427 81.8777 102.617C82.0935 102.805 82.372 102.899 82.7132 102.899C83.2353 102.899 83.6426 102.671 83.935 102.217C84.2274 101.759 84.3747 101.121 84.3771 100.302H84.3214C84.2007 100.502 84.0499 100.673 83.8688 100.817C83.6902 100.961 83.4894 101.072 83.2666 101.151C83.0438 101.23 82.806 101.27 82.553 101.27C82.1423 101.27 81.7686 101.169 81.4321 100.967C81.0956 100.765 80.8276 100.488 80.628 100.135C80.4285 99.7822 80.3287 99.3795 80.3287 98.927C80.3287 98.4768 80.4308 98.0683 80.635 97.7017C80.8415 97.335 81.1293 97.0449 81.4983 96.8314C81.8696 96.6156 82.3047 96.51 82.8037 96.5147ZM82.8071 97.4197C82.5356 97.4197 82.2908 97.487 82.0726 97.6216C81.8568 97.7539 81.6863 97.9337 81.5609 98.1612C81.4356 98.3863 81.373 98.6369 81.373 98.9131C81.373 99.1892 81.4333 99.4399 81.554 99.665C81.677 99.8877 81.8441 100.065 82.0552 100.198C82.2687 100.328 82.5124 100.392 82.7863 100.392C82.9905 100.392 83.1808 100.353 83.3571 100.274C83.5335 100.195 83.6878 100.086 83.8201 99.9469C83.9524 99.8054 84.0557 99.6452 84.1299 99.4665C84.2042 99.2879 84.2413 99.0999 84.2413 98.9026C84.2413 98.6404 84.1787 98.3967 84.0533 98.1716C83.9303 97.9465 83.7609 97.7655 83.5451 97.6286C83.3293 97.4893 83.0833 97.4197 82.8071 97.4197Z" fill="black"/>
<rect x="74.6692" y="160.707" width="26.7343" height="10.8007" rx="1.86714" fill="white"/>
<rect x="74.6692" y="160.707" width="26.7343" height="10.8007" rx="1.86714" fill="#0085FF" fill-opacity="0.1"/>
<path d="M78.806 166.566H79.5115L80.0081 167.214L80.2425 167.502L81.0338 168.534H80.3005L79.7714 167.845L79.5904 167.595L78.806 166.566ZM81.187 165.731C81.187 166.239 81.0942 166.675 80.9085 167.04C80.7229 167.403 80.4684 167.684 80.145 167.88C79.8232 168.075 79.4573 168.172 79.0473 168.172C78.6358 168.172 78.2684 168.075 77.945 167.88C77.6232 167.684 77.3695 167.403 77.1838 167.038C76.9982 166.672 76.9054 166.237 76.9054 165.731C76.9054 165.224 76.9982 164.788 77.1838 164.425C77.3695 164.059 77.6232 163.779 77.945 163.584C78.2684 163.388 78.6358 163.29 79.0473 163.29C79.4573 163.29 79.8232 163.388 80.145 163.584C80.4684 163.779 80.7229 164.059 80.9085 164.425C81.0942 164.788 81.187 165.224 81.187 165.731ZM80.4769 165.731C80.4769 165.344 80.4142 165.019 80.2889 164.754C80.1651 164.488 79.9949 164.287 79.7783 164.151C79.5633 164.013 79.3196 163.944 79.0473 163.944C78.7735 163.944 78.5291 164.013 78.314 164.151C78.099 164.287 77.9288 164.488 77.8035 164.754C77.6797 165.019 77.6178 165.344 77.6178 165.731C77.6178 166.118 77.6797 166.444 77.8035 166.71C77.9288 166.975 78.099 167.176 78.314 167.314C78.5291 167.45 78.7735 167.518 79.0473 167.518C79.3196 167.518 79.5633 167.45 79.7783 167.314C79.9949 167.176 80.1651 166.975 80.2889 166.71C80.4142 166.444 80.4769 166.118 80.4769 165.731ZM84.2833 166.629V164.543H84.9795V168.107H84.2973V167.49H84.2601C84.1781 167.68 84.0466 167.839 83.8656 167.966C83.6862 168.091 83.4626 168.154 83.1949 168.154C82.966 168.154 82.7633 168.104 82.5869 168.003C82.4121 167.901 82.2744 167.75 82.1739 167.55C82.0748 167.351 82.0253 167.104 82.0253 166.81V164.543H82.7192V166.727C82.7192 166.97 82.7865 167.163 82.9211 167.307C83.0557 167.451 83.2305 167.523 83.4456 167.523C83.5755 167.523 83.7047 167.49 83.8331 167.425C83.9631 167.36 84.0706 167.262 84.1557 167.13C84.2423 166.999 84.2849 166.832 84.2833 166.629ZM87.4133 168.179C87.0792 168.179 86.7875 168.103 86.5384 167.95C86.2894 167.796 86.096 167.582 85.9583 167.307C85.8206 167.031 85.7517 166.71 85.7517 166.341C85.7517 165.972 85.8206 165.648 85.9583 165.371C86.096 165.094 86.2894 164.879 86.5384 164.726C86.7875 164.573 87.0792 164.496 87.4133 164.496C87.7475 164.496 88.0391 164.573 88.2882 164.726C88.5373 164.879 88.7307 165.094 88.8684 165.371C89.0061 165.648 89.0749 165.972 89.0749 166.341C89.0749 166.71 89.0061 167.031 88.8684 167.307C88.7307 167.582 88.5373 167.796 88.2882 167.95C88.0391 168.103 87.7475 168.179 87.4133 168.179ZM87.4157 167.597C87.6323 167.597 87.8117 167.54 87.9541 167.425C88.0964 167.311 88.2016 167.158 88.2697 166.968C88.3393 166.778 88.3741 166.568 88.3741 166.339C88.3741 166.112 88.3393 165.903 88.2697 165.712C88.2016 165.521 88.0964 165.367 87.9541 165.251C87.8117 165.135 87.6323 165.077 87.4157 165.077C87.1975 165.077 87.0165 165.135 86.8726 165.251C86.7303 165.367 86.6243 165.521 86.5547 165.712C86.4866 165.903 86.4526 166.112 86.4526 166.339C86.4526 166.568 86.4866 166.778 86.5547 166.968C86.6243 167.158 86.7303 167.311 86.8726 167.425C87.0165 167.54 87.1975 167.597 87.4157 167.597ZM91.5134 164.543V165.1H89.5663V164.543H91.5134ZM90.0885 163.689H90.7824V167.061C90.7824 167.195 90.8025 167.297 90.8427 167.365C90.8829 167.431 90.9348 167.477 90.9982 167.502C91.0632 167.525 91.1336 167.537 91.2094 167.537C91.2651 167.537 91.3138 167.533 91.3556 167.525C91.3973 167.517 91.4298 167.511 91.453 167.506L91.5784 168.08C91.5381 168.095 91.4809 168.111 91.4066 168.126C91.3324 168.143 91.2395 168.152 91.1281 168.154C90.9456 168.157 90.7754 168.124 90.6176 168.056C90.4598 167.988 90.3322 167.883 90.2347 167.741C90.1372 167.598 90.0885 167.42 90.0885 167.205V163.689ZM93.7789 168.179C93.4277 168.179 93.1253 168.104 92.8715 167.954C92.6194 167.803 92.4244 167.59 92.2867 167.316C92.1506 167.041 92.0825 166.718 92.0825 166.348C92.0825 165.983 92.1506 165.661 92.2867 165.383C92.4244 165.104 92.6163 164.887 92.8623 164.731C93.1098 164.575 93.3991 164.496 93.7302 164.496C93.9313 164.496 94.1262 164.53 94.315 164.596C94.5037 164.663 94.6732 164.767 94.8232 164.91C94.9733 165.052 95.0916 165.237 95.1783 165.464C95.2649 165.69 95.3082 165.965 95.3082 166.288V166.534H92.4747V166.014H94.6283C94.6283 165.832 94.5912 165.67 94.5169 165.529C94.4426 165.387 94.3382 165.275 94.2036 165.193C94.0706 165.111 93.9143 165.07 93.7348 165.07C93.5399 165.07 93.3697 165.118 93.2243 165.214C93.0804 165.308 92.969 165.432 92.8901 165.585C92.8128 165.736 92.7741 165.901 92.7741 166.079V166.485C92.7741 166.724 92.8158 166.926 92.8994 167.093C92.9845 167.26 93.1028 167.388 93.2545 167.476C93.4061 167.563 93.5832 167.606 93.7859 167.606C93.9174 167.606 94.0373 167.588 94.1456 167.55C94.2539 167.512 94.3475 167.455 94.4264 167.379C94.5053 167.303 94.5656 167.209 94.6074 167.098L95.2641 167.216C95.2115 167.41 95.1172 167.579 94.981 167.725C94.8464 167.868 94.677 167.981 94.4728 168.061C94.2701 168.14 94.0388 168.179 93.7789 168.179ZM98.7492 165.413L98.1203 165.525C98.094 165.444 98.0522 165.367 97.995 165.295C97.9393 165.222 97.8635 165.162 97.7676 165.116C97.6716 165.07 97.5517 165.046 97.4079 165.046C97.2114 165.046 97.0474 165.091 96.9159 165.179C96.7844 165.265 96.7186 165.378 96.7186 165.515C96.7186 165.634 96.7627 165.73 96.8509 165.803C96.9391 165.876 97.0814 165.935 97.2779 165.982L97.8441 166.112C98.1721 166.187 98.4166 166.304 98.5775 166.462C98.7384 166.62 98.8188 166.825 98.8188 167.077C98.8188 167.291 98.7569 167.481 98.6332 167.648C98.511 167.813 98.34 167.943 98.1203 168.038C97.9022 168.132 97.6492 168.179 97.3614 168.179C96.9623 168.179 96.6366 168.094 96.3844 167.924C96.1323 167.752 95.9776 167.509 95.9203 167.193L96.591 167.091C96.6328 167.266 96.7186 167.398 96.8486 167.488C96.9785 167.576 97.1479 167.62 97.3568 167.62C97.5842 167.62 97.766 167.573 97.9022 167.479C98.0383 167.383 98.1064 167.266 98.1064 167.128C98.1064 167.017 98.0646 166.923 97.9811 166.847C97.8991 166.771 97.773 166.714 97.6028 166.676L96.9994 166.543C96.6668 166.467 96.4208 166.347 96.2615 166.181C96.1036 166.016 96.0247 165.806 96.0247 165.552C96.0247 165.342 96.0835 165.158 96.2011 165C96.3187 164.842 96.4811 164.719 96.6885 164.631C96.8958 164.541 97.1333 164.496 97.4009 164.496C97.7861 164.496 98.0894 164.58 98.3106 164.747C98.5318 164.913 98.678 165.135 98.7492 165.413Z" fill="#0085FF"/>
<rect x="154.49" y="88.1399" width="86.3553" height="89.9029" fill="#F8F8F8"/>
<rect x="154.49" y="88.1399" width="86.3553" height="89.9029" stroke="#E8E8E8" stroke-width="0.466785"/>
<path opacity="0.4" d="M163.259 103.839C162.781 103.839 162.354 103.756 161.978 103.592C161.604 103.427 161.308 103.198 161.09 102.906C160.874 102.611 160.758 102.27 160.742 101.882H161.835C161.849 102.094 161.92 102.277 162.047 102.432C162.177 102.586 162.347 102.704 162.555 102.787C162.764 102.871 162.996 102.913 163.252 102.913C163.532 102.913 163.781 102.864 163.997 102.767C164.215 102.669 164.385 102.533 164.508 102.359C164.631 102.183 164.693 101.98 164.693 101.75C164.693 101.511 164.631 101.301 164.508 101.12C164.388 100.937 164.21 100.793 163.976 100.688C163.744 100.584 163.463 100.532 163.133 100.532H162.531V99.6545H163.133C163.398 99.6545 163.63 99.6069 163.83 99.5118C164.031 99.4167 164.189 99.2844 164.303 99.115C164.417 98.9432 164.474 98.7425 164.474 98.5128C164.474 98.2923 164.424 98.1008 164.324 97.9384C164.226 97.7736 164.087 97.6448 163.906 97.552C163.727 97.4592 163.516 97.4128 163.273 97.4128C163.041 97.4128 162.824 97.4557 162.622 97.5416C162.422 97.6251 162.26 97.7458 162.134 97.9036C162.009 98.0591 161.942 98.2459 161.932 98.464H160.892C160.903 98.0788 161.017 97.74 161.233 97.4476C161.451 97.1552 161.739 96.9266 162.096 96.7618C162.453 96.597 162.85 96.5147 163.286 96.5147C163.744 96.5147 164.138 96.604 164.47 96.7827C164.804 96.9591 165.062 97.1946 165.243 97.4893C165.426 97.7841 165.517 98.1066 165.514 98.4571C165.517 98.8562 165.405 99.195 165.18 99.4735C164.957 99.752 164.66 99.9388 164.289 100.034V100.09C164.762 100.162 165.129 100.35 165.389 100.654C165.651 100.958 165.781 101.335 165.779 101.785C165.781 102.177 165.672 102.529 165.452 102.84C165.234 103.151 164.935 103.395 164.557 103.574C164.179 103.75 163.746 103.839 163.259 103.839ZM169.577 103.86C169.027 103.857 168.557 103.712 168.167 103.424C167.777 103.137 167.479 102.718 167.272 102.168C167.066 101.618 166.962 100.955 166.962 100.18C166.962 99.4074 167.066 98.7471 167.272 98.1995C167.481 97.6518 167.78 97.2341 168.17 96.9463C168.563 96.6585 169.031 96.5147 169.577 96.5147C170.122 96.5147 170.59 96.6597 170.98 96.9498C171.369 97.2375 171.668 97.6553 171.874 98.2029C172.083 98.7483 172.187 99.4074 172.187 100.18C172.187 100.958 172.084 101.621 171.878 102.171C171.671 102.719 171.373 103.138 170.983 103.428C170.593 103.716 170.124 103.86 169.577 103.86ZM169.577 102.93C170.059 102.93 170.436 102.695 170.708 102.223C170.982 101.752 171.119 101.071 171.119 100.18C171.119 99.5884 171.056 99.0883 170.931 98.6798C170.808 98.2691 170.63 97.9581 170.398 97.7469C170.168 97.5334 169.895 97.4267 169.577 97.4267C169.096 97.4267 168.719 97.6634 168.445 98.1368C168.171 98.6102 168.033 99.2913 168.031 100.18C168.031 100.774 168.093 101.277 168.216 101.687C168.341 102.096 168.518 102.406 168.748 102.617C168.978 102.826 169.254 102.93 169.577 102.93Z" fill="black"/>
<rect x="240.845" y="88.1399" width="86.3553" height="89.9029" fill="#F8F8F8"/>
<rect x="240.845" y="88.1399" width="86.3553" height="89.9029" stroke="#E8E8E8" stroke-width="0.466785"/>
<path opacity="0.4" d="M249.614 103.839C249.136 103.839 248.709 103.756 248.333 103.592C247.959 103.427 247.663 103.198 247.445 102.906C247.229 102.611 247.113 102.27 247.097 101.882H248.19C248.204 102.094 248.275 102.277 248.403 102.432C248.533 102.586 248.702 102.704 248.911 102.787C249.12 102.871 249.352 102.913 249.607 102.913C249.888 102.913 250.136 102.864 250.352 102.767C250.57 102.669 250.741 102.533 250.864 102.359C250.987 102.183 251.048 101.98 251.048 101.75C251.048 101.511 250.987 101.301 250.864 101.12C250.743 100.937 250.565 100.793 250.331 100.688C250.099 100.584 249.818 100.532 249.489 100.532H248.886V99.6545H249.489C249.753 99.6545 249.985 99.6069 250.185 99.5118C250.387 99.4167 250.545 99.2844 250.658 99.115C250.772 98.9432 250.829 98.7425 250.829 98.5128C250.829 98.2923 250.779 98.1008 250.679 97.9384C250.582 97.7736 250.442 97.6448 250.261 97.552C250.083 97.4592 249.872 97.4128 249.628 97.4128C249.396 97.4128 249.179 97.4557 248.977 97.5416C248.777 97.6251 248.615 97.7458 248.49 97.9036C248.364 98.0591 248.297 98.2459 248.288 98.464H247.247C247.258 98.0788 247.372 97.74 247.588 97.4476C247.806 97.1552 248.094 96.9266 248.451 96.7618C248.809 96.597 249.205 96.5147 249.642 96.5147C250.099 96.5147 250.493 96.604 250.825 96.7827C251.159 96.9591 251.417 97.1946 251.598 97.4893C251.781 97.7841 251.872 98.1066 251.87 98.4571C251.872 98.8562 251.761 99.195 251.535 99.4735C251.313 99.752 251.016 99.9388 250.644 100.034V100.09C251.118 100.162 251.484 100.35 251.744 100.654C252.007 100.958 252.137 101.335 252.134 101.785C252.137 102.177 252.027 102.529 251.807 102.84C251.589 103.151 251.291 103.395 250.912 103.574C250.534 103.75 250.101 103.839 249.614 103.839ZM256.155 96.6121V103.741H255.076V97.6912H255.034L253.328 98.8052V97.7748L255.107 96.6121H256.155Z" fill="black"/>
<rect x="327.2" y="88.1399" width="86.3553" height="89.9029" fill="white"/>
<rect x="327.2" y="88.1399" width="86.3553" height="89.9029" stroke="#E8E8E8" stroke-width="0.466785"/>
<path d="M336.192 96.6121V103.741H335.113V97.6912H335.071L333.365 98.8052V97.7748L335.144 96.6121H336.192Z" fill="black"/>
<rect x="333.735" y="160.707" width="26.7343" height="10.8007" rx="1.86714" fill="white"/>
<rect x="333.735" y="160.707" width="26.7343" height="10.8007" rx="1.86714" fill="#0085FF" fill-opacity="0.1"/>
<path d="M337.872 166.566H338.577L339.074 167.214L339.308 167.502L340.1 168.534H339.366L338.837 167.845L338.656 167.595L337.872 166.566ZM340.253 165.731C340.253 166.239 340.16 166.675 339.974 167.04C339.789 167.403 339.534 167.684 339.211 167.88C338.889 168.075 338.523 168.172 338.113 168.172C337.702 168.172 337.334 168.075 337.011 167.88C336.689 167.684 336.435 167.403 336.25 167.038C336.064 166.672 335.971 166.237 335.971 165.731C335.971 165.224 336.064 164.788 336.25 164.425C336.435 164.059 336.689 163.779 337.011 163.584C337.334 163.388 337.702 163.29 338.113 163.29C338.523 163.29 338.889 163.388 339.211 163.584C339.534 163.779 339.789 164.059 339.974 164.425C340.16 164.788 340.253 165.224 340.253 165.731ZM339.543 165.731C339.543 165.344 339.48 165.019 339.355 164.754C339.231 164.488 339.061 164.287 338.844 164.151C338.629 164.013 338.385 163.944 338.113 163.944C337.839 163.944 337.595 164.013 337.38 164.151C337.165 164.287 336.995 164.488 336.869 164.754C336.746 165.019 336.684 165.344 336.684 165.731C336.684 166.118 336.746 166.444 336.869 166.71C336.995 166.975 337.165 167.176 337.38 167.314C337.595 167.45 337.839 167.518 338.113 167.518C338.385 167.518 338.629 167.45 338.844 167.314C339.061 167.176 339.231 166.975 339.355 166.71C339.48 166.444 339.543 166.118 339.543 165.731ZM343.349 166.629V164.543H344.045V168.107H343.363V167.49H343.326C343.244 167.68 343.112 167.839 342.931 167.966C342.752 168.091 342.528 168.154 342.261 168.154C342.032 168.154 341.829 168.104 341.653 168.003C341.478 167.901 341.34 167.75 341.24 167.55C341.141 167.351 341.091 167.104 341.091 166.81V164.543H341.785V166.727C341.785 166.97 341.852 167.163 341.987 167.307C342.122 167.451 342.296 167.523 342.511 167.523C342.641 167.523 342.771 167.49 342.899 167.425C343.029 167.36 343.136 167.262 343.222 167.13C343.308 166.999 343.351 166.832 343.349 166.629ZM346.479 168.179C346.145 168.179 345.853 168.103 345.604 167.95C345.355 167.796 345.162 167.582 345.024 167.307C344.886 167.031 344.818 166.71 344.818 166.341C344.818 165.972 344.886 165.648 345.024 165.371C345.162 165.094 345.355 164.879 345.604 164.726C345.853 164.573 346.145 164.496 346.479 164.496C346.813 164.496 347.105 164.573 347.354 164.726C347.603 164.879 347.797 165.094 347.934 165.371C348.072 165.648 348.141 165.972 348.141 166.341C348.141 166.71 348.072 167.031 347.934 167.307C347.797 167.582 347.603 167.796 347.354 167.95C347.105 168.103 346.813 168.179 346.479 168.179ZM346.482 167.597C346.698 167.597 346.878 167.54 347.02 167.425C347.162 167.311 347.267 167.158 347.336 166.968C347.405 166.778 347.44 166.568 347.44 166.339C347.44 166.112 347.405 165.903 347.336 165.712C347.267 165.521 347.162 165.367 347.02 165.251C346.878 165.135 346.698 165.077 346.482 165.077C346.263 165.077 346.082 165.135 345.938 165.251C345.796 165.367 345.69 165.521 345.621 165.712C345.552 165.903 345.518 166.112 345.518 166.339C345.518 166.568 345.552 166.778 345.621 166.968C345.69 167.158 345.796 167.311 345.938 167.425C346.082 167.54 346.263 167.597 346.482 167.597ZM350.579 164.543V165.1H348.632V164.543H350.579ZM349.154 163.689H349.848V167.061C349.848 167.195 349.868 167.297 349.909 167.365C349.949 167.431 350.001 167.477 350.064 167.502C350.129 167.525 350.199 167.537 350.275 167.537C350.331 167.537 350.38 167.533 350.421 167.525C350.463 167.517 350.496 167.511 350.519 167.506L350.644 168.08C350.604 168.095 350.547 168.111 350.472 168.126C350.398 168.143 350.305 168.152 350.194 168.154C350.011 168.157 349.841 168.124 349.683 168.056C349.526 167.988 349.398 167.883 349.301 167.741C349.203 167.598 349.154 167.42 349.154 167.205V163.689ZM352.845 168.179C352.494 168.179 352.191 168.104 351.937 167.954C351.685 167.803 351.49 167.59 351.353 167.316C351.216 167.041 351.148 166.718 351.148 166.348C351.148 165.983 351.216 165.661 351.353 165.383C351.49 165.104 351.682 164.887 351.928 164.731C352.176 164.575 352.465 164.496 352.796 164.496C352.997 164.496 353.192 164.53 353.381 164.596C353.57 164.663 353.739 164.767 353.889 164.91C354.039 165.052 354.158 165.237 354.244 165.464C354.331 165.69 354.374 165.965 354.374 166.288V166.534H351.541V166.014H353.694C353.694 165.832 353.657 165.67 353.583 165.529C353.508 165.387 353.404 165.275 353.269 165.193C353.136 165.111 352.98 165.07 352.801 165.07C352.606 165.07 352.436 165.118 352.29 165.214C352.146 165.308 352.035 165.432 351.956 165.585C351.879 165.736 351.84 165.901 351.84 166.079V166.485C351.84 166.724 351.882 166.926 351.965 167.093C352.05 167.26 352.169 167.388 352.32 167.476C352.472 167.563 352.649 167.606 352.852 167.606C352.983 167.606 353.103 167.588 353.211 167.55C353.32 167.512 353.413 167.455 353.492 167.379C353.571 167.303 353.631 167.209 353.673 167.098L354.33 167.216C354.277 167.41 354.183 167.579 354.047 167.725C353.912 167.868 353.743 167.981 353.539 168.061C353.336 168.14 353.105 168.179 352.845 168.179ZM357.815 165.413L357.186 165.525C357.16 165.444 357.118 165.367 357.061 165.295C357.005 165.222 356.929 165.162 356.833 165.116C356.738 165.07 356.618 165.046 356.474 165.046C356.277 165.046 356.113 165.091 355.982 165.179C355.85 165.265 355.784 165.378 355.784 165.515C355.784 165.634 355.829 165.73 355.917 165.803C356.005 165.876 356.147 165.935 356.344 165.982L356.91 166.112C357.238 166.187 357.482 166.304 357.643 166.462C357.804 166.62 357.885 166.825 357.885 167.077C357.885 167.291 357.823 167.481 357.699 167.648C357.577 167.813 357.406 167.943 357.186 168.038C356.968 168.132 356.715 168.179 356.427 168.179C356.028 168.179 355.702 168.094 355.45 167.924C355.198 167.752 355.043 167.509 354.986 167.193L355.657 167.091C355.699 167.266 355.784 167.398 355.914 167.488C356.044 167.576 356.214 167.62 356.423 167.62C356.65 167.62 356.832 167.573 356.968 167.479C357.104 167.383 357.172 167.266 357.172 167.128C357.172 167.017 357.13 166.923 357.047 166.847C356.965 166.771 356.839 166.714 356.669 166.676L356.065 166.543C355.733 166.467 355.487 166.347 355.327 166.181C355.17 166.016 355.091 165.806 355.091 165.552C355.091 165.342 355.149 165.158 355.267 165C355.385 164.842 355.547 164.719 355.754 164.631C355.962 164.541 356.199 164.496 356.467 164.496C356.852 164.496 357.155 164.58 357.376 164.747C357.598 164.913 357.744 165.135 357.815 165.413Z" fill="#0085FF"/>
<rect x="413.555" y="88.1399" width="86.3553" height="89.9029" fill="white"/>
<rect x="413.555" y="88.1399" width="86.3553" height="89.9029" stroke="#E8E8E8" stroke-width="0.466785"/>
<path d="M419.843 103.741V102.961L422.255 100.462C422.512 100.191 422.725 99.9527 422.892 99.7485C423.061 99.542 423.188 99.3459 423.271 99.1602C423.355 98.9746 423.397 98.7773 423.397 98.5684C423.397 98.3317 423.341 98.1275 423.23 97.9558C423.118 97.7817 422.966 97.6483 422.774 97.5555C422.581 97.4603 422.364 97.4128 422.123 97.4128C421.867 97.4128 421.645 97.465 421.454 97.5694C421.264 97.6738 421.118 97.8212 421.016 98.0115C420.914 98.2018 420.862 98.4246 420.862 98.6798H419.836C419.836 98.2459 419.935 97.8664 420.135 97.5416C420.335 97.2167 420.608 96.9649 420.956 96.7862C421.305 96.6052 421.7 96.5147 422.143 96.5147C422.591 96.5147 422.986 96.604 423.327 96.7827C423.67 96.9591 423.939 97.2004 424.131 97.5067C424.324 97.8108 424.42 98.1542 424.42 98.5371C424.42 98.8017 424.37 99.0604 424.27 99.3134C424.173 99.5663 424.002 99.8483 423.759 100.159C423.515 100.468 423.176 100.843 422.742 101.284L421.325 102.767V102.819H424.535V103.741H419.843Z" fill="black"/>
<rect x="68.1342" y="178.043" width="86.3553" height="89.9029" fill="white"/>
<rect x="68.1342" y="178.043" width="86.3553" height="89.9029" stroke="#E8E8E8" stroke-width="0.466785"/>
<path d="M76.7746 193.742C76.3383 193.742 75.9461 193.658 75.598 193.491C75.2522 193.321 74.9761 193.089 74.7695 192.795C74.563 192.5 74.4527 192.163 74.4388 191.785H75.4831C75.5086 192.092 75.6444 192.343 75.8904 192.541C76.1364 192.738 76.4311 192.836 76.7746 192.836C77.0484 192.836 77.2909 192.774 77.5021 192.648C77.7156 192.521 77.8827 192.346 78.0034 192.123C78.1264 191.9 78.1879 191.646 78.1879 191.361C78.1879 191.07 78.1252 190.812 77.9999 190.584C77.8746 190.357 77.7017 190.178 77.4812 190.048C77.2631 189.918 77.0124 189.852 76.7293 189.85C76.5135 189.85 76.2965 189.887 76.0784 189.961C75.8602 190.035 75.6839 190.133 75.5493 190.254L74.5641 190.107L74.9644 186.515H78.8841V187.437H75.8591L75.6328 189.432H75.6746C75.8138 189.297 75.9983 189.185 76.2281 189.094C76.4601 189.004 76.7084 188.959 76.973 188.959C77.4069 188.959 77.7933 189.062 78.1322 189.268C78.4733 189.475 78.7413 189.757 78.9363 190.114C79.1335 190.469 79.231 190.878 79.2287 191.34C79.231 191.801 79.1266 192.213 78.9154 192.575C78.7065 192.937 78.4164 193.223 78.0451 193.432C77.6761 193.638 77.2526 193.742 76.7746 193.742Z" fill="black"/>
<rect x="74.6692" y="237.009" width="26.7343" height="10.8007" rx="1.86714" fill="white"/>
<rect x="74.6692" y="237.009" width="26.7343" height="10.8007" rx="1.86714" fill="#0085FF" fill-opacity="0.1"/>
<path d="M78.806 242.868H79.5115L80.0081 243.515L80.2425 243.803L81.0338 244.836H80.3005L79.7714 244.147L79.5904 243.896L78.806 242.868ZM81.187 242.033C81.187 242.54 81.0942 242.976 80.9085 243.341C80.7229 243.705 80.4684 243.985 80.145 244.182C79.8232 244.376 79.4573 244.474 79.0473 244.474C78.6358 244.474 78.2684 244.376 77.945 244.182C77.6232 243.985 77.3695 243.704 77.1838 243.339C76.9982 242.974 76.9054 242.538 76.9054 242.033C76.9054 241.525 76.9982 241.09 77.1838 240.726C77.3695 240.361 77.6232 240.081 77.945 239.886C78.2684 239.689 78.6358 239.591 79.0473 239.591C79.4573 239.591 79.8232 239.689 80.145 239.886C80.4684 240.081 80.7229 240.361 80.9085 240.726C81.0942 241.09 81.187 241.525 81.187 242.033ZM80.4769 242.033C80.4769 241.646 80.4142 241.32 80.2889 241.056C80.1651 240.789 79.9949 240.588 79.7783 240.452C79.5633 240.315 79.3196 240.246 79.0473 240.246C78.7735 240.246 78.5291 240.315 78.314 240.452C78.099 240.588 77.9288 240.789 77.8035 241.056C77.6797 241.32 77.6178 241.646 77.6178 242.033C77.6178 242.419 77.6797 242.746 77.8035 243.012C77.9288 243.276 78.099 243.478 78.314 243.615C78.5291 243.751 78.7735 243.819 79.0473 243.819C79.3196 243.819 79.5633 243.751 79.7783 243.615C79.9949 243.478 80.1651 243.276 80.2889 243.012C80.4142 242.746 80.4769 242.419 80.4769 242.033ZM84.2833 242.931V240.844H84.9795V244.409H84.2973V243.792H84.2601C84.1781 243.982 84.0466 244.141 83.8656 244.267C83.6862 244.393 83.4626 244.455 83.1949 244.455C82.966 244.455 82.7633 244.405 82.5869 244.305C82.4121 244.202 82.2744 244.052 82.1739 243.852C82.0748 243.652 82.0253 243.406 82.0253 243.112V240.844H82.7192V243.028C82.7192 243.271 82.7865 243.464 82.9211 243.608C83.0557 243.752 83.2305 243.824 83.4456 243.824C83.5755 243.824 83.7047 243.792 83.8331 243.727C83.9631 243.662 84.0706 243.563 84.1557 243.432C84.2423 243.3 84.2849 243.133 84.2833 242.931ZM87.4133 244.481C87.0792 244.481 86.7875 244.404 86.5384 244.251C86.2894 244.098 86.096 243.884 85.9583 243.608C85.8206 243.333 85.7517 243.011 85.7517 242.643C85.7517 242.273 85.8206 241.95 85.9583 241.673C86.096 241.396 86.2894 241.181 86.5384 241.028C86.7875 240.875 87.0792 240.798 87.4133 240.798C87.7475 240.798 88.0391 240.875 88.2882 241.028C88.5373 241.181 88.7307 241.396 88.8684 241.673C89.0061 241.95 89.0749 242.273 89.0749 242.643C89.0749 243.011 89.0061 243.333 88.8684 243.608C88.7307 243.884 88.5373 244.098 88.2882 244.251C88.0391 244.404 87.7475 244.481 87.4133 244.481ZM87.4157 243.898C87.6323 243.898 87.8117 243.841 87.9541 243.727C88.0964 243.612 88.2016 243.46 88.2697 243.269C88.3393 243.079 88.3741 242.87 88.3741 242.641C88.3741 242.413 88.3393 242.204 88.2697 242.014C88.2016 241.822 88.0964 241.668 87.9541 241.552C87.8117 241.436 87.6323 241.378 87.4157 241.378C87.1975 241.378 87.0165 241.436 86.8726 241.552C86.7303 241.668 86.6243 241.822 86.5547 242.014C86.4866 242.204 86.4526 242.413 86.4526 242.641C86.4526 242.87 86.4866 243.079 86.5547 243.269C86.6243 243.46 86.7303 243.612 86.8726 243.727C87.0165 243.841 87.1975 243.898 87.4157 243.898ZM91.5134 240.844V241.401H89.5663V240.844H91.5134ZM90.0885 239.99H90.7824V243.362C90.7824 243.497 90.8025 243.598 90.8427 243.666C90.8829 243.733 90.9348 243.778 90.9982 243.803C91.0632 243.826 91.1336 243.838 91.2094 243.838C91.2651 243.838 91.3138 243.834 91.3556 243.826C91.3973 243.819 91.4298 243.813 91.453 243.808L91.5784 244.381C91.5381 244.397 91.4809 244.412 91.4066 244.428C91.3324 244.445 91.2395 244.454 91.1281 244.455C90.9456 244.458 90.7754 244.426 90.6176 244.358C90.4598 244.29 90.3322 244.185 90.2347 244.042C90.1372 243.9 90.0885 243.721 90.0885 243.506V239.99ZM93.7789 244.481C93.4277 244.481 93.1253 244.406 92.8715 244.256C92.6194 244.104 92.4244 243.891 92.2867 243.618C92.1506 243.342 92.0825 243.02 92.0825 242.65C92.0825 242.285 92.1506 241.963 92.2867 241.684C92.4244 241.406 92.6163 241.189 92.8623 241.032C93.1098 240.876 93.3991 240.798 93.7302 240.798C93.9313 240.798 94.1262 240.831 94.315 240.898C94.5037 240.964 94.6732 241.069 94.8232 241.211C94.9733 241.353 95.0916 241.538 95.1783 241.766C95.2649 241.992 95.3082 242.266 95.3082 242.59V242.836H92.4747V242.316H94.6283C94.6283 242.133 94.5912 241.971 94.5169 241.831C94.4426 241.688 94.3382 241.576 94.2036 241.494C94.0706 241.412 93.9143 241.371 93.7348 241.371C93.5399 241.371 93.3697 241.419 93.2243 241.515C93.0804 241.609 92.969 241.733 92.8901 241.886C92.8128 242.038 92.7741 242.203 92.7741 242.381V242.787C92.7741 243.025 92.8158 243.228 92.8994 243.395C92.9845 243.562 93.1028 243.69 93.2545 243.778C93.4061 243.864 93.5832 243.908 93.7859 243.908C93.9174 243.908 94.0373 243.889 94.1456 243.852C94.2539 243.813 94.3475 243.756 94.4264 243.68C94.5053 243.604 94.5656 243.511 94.6074 243.399L95.2641 243.518C95.2115 243.711 95.1172 243.881 94.981 244.026C94.8464 244.17 94.677 244.282 94.4728 244.363C94.2701 244.441 94.0388 244.481 93.7789 244.481ZM98.7492 241.715L98.1203 241.826C98.094 241.746 98.0522 241.669 97.995 241.596C97.9393 241.524 97.8635 241.464 97.7676 241.418C97.6716 241.371 97.5517 241.348 97.4079 241.348C97.2114 241.348 97.0474 241.392 96.9159 241.48C96.7844 241.567 96.7186 241.679 96.7186 241.817C96.7186 241.936 96.7627 242.032 96.8509 242.105C96.9391 242.177 97.0814 242.237 97.2779 242.283L97.8441 242.413C98.1721 242.489 98.4166 242.606 98.5775 242.764C98.7384 242.921 98.8188 243.126 98.8188 243.379C98.8188 243.592 98.7569 243.782 98.6332 243.949C98.511 244.115 98.34 244.245 98.1203 244.339C97.9022 244.434 97.6492 244.481 97.3614 244.481C96.9623 244.481 96.6366 244.396 96.3844 244.226C96.1323 244.054 95.9776 243.81 95.9203 243.495L96.591 243.392C96.6328 243.567 96.7186 243.7 96.8486 243.789C96.9785 243.878 97.1479 243.922 97.3568 243.922C97.5842 243.922 97.766 243.874 97.9022 243.78C98.0383 243.684 98.1064 243.567 98.1064 243.43C98.1064 243.318 98.0646 243.225 97.9811 243.149C97.8991 243.073 97.773 243.016 97.6028 242.977L96.9994 242.845C96.6668 242.769 96.4208 242.648 96.2615 242.483C96.1036 242.317 96.0247 242.108 96.0247 241.854C96.0247 241.643 96.0835 241.459 96.2011 241.302C96.3187 241.144 96.4811 241.021 96.6885 240.933C96.8958 240.843 97.1333 240.798 97.4009 240.798C97.7861 240.798 98.0894 240.882 98.3106 241.049C98.5318 241.214 98.678 241.436 98.7492 241.715Z" fill="#0085FF"/>
<rect x="74.6693" y="250.61" width="34.7343" height="10.8007" rx="1.86714" fill="white"/>
<rect x="74.6693" y="250.61" width="34.7343" height="10.8007" rx="1.86714" fill="#FF961B" fill-opacity="0.1"/>
<path d="M80.275 254.759C80.2302 254.618 80.1698 254.492 80.094 254.381C80.0198 254.268 79.9308 254.172 79.8271 254.093C79.7235 254.013 79.6051 253.951 79.4721 253.91C79.3406 253.868 79.1959 253.847 79.0381 253.847C78.7705 253.847 78.5291 253.916 78.3141 254.054C78.099 254.191 77.9288 254.393 77.8035 254.659C77.6798 254.924 77.6179 255.248 77.6179 255.632C77.6179 256.017 77.6805 256.342 77.8058 256.609C77.9312 256.875 78.1029 257.077 78.321 257.214C78.5392 257.352 78.7875 257.421 79.066 257.421C79.3243 257.421 79.5494 257.368 79.7413 257.263C79.9347 257.158 80.084 257.009 80.1892 256.817C80.2959 256.624 80.3493 256.397 80.3493 256.135L80.5349 256.17H79.175V255.578H81.0432V256.119C81.0432 256.518 80.9581 256.865 80.7879 257.159C80.6193 257.451 80.3856 257.677 80.0871 257.836C79.79 257.996 79.4496 258.075 79.066 258.075C78.6359 258.075 78.2584 257.976 77.9335 257.778C77.6101 257.58 77.358 257.299 77.1769 256.936C76.9959 256.571 76.9054 256.137 76.9054 255.636C76.9054 255.257 76.958 254.917 77.0632 254.615C77.1684 254.313 77.3162 254.057 77.5065 253.847C77.6983 253.635 77.9234 253.473 78.1818 253.362C78.4417 253.249 78.7256 253.193 79.0335 253.193C79.2903 253.193 79.5293 253.23 79.7506 253.306C79.9733 253.382 80.1714 253.49 80.3447 253.629C80.5195 253.768 80.6641 253.934 80.7786 254.125C80.8931 254.316 80.9705 254.527 81.0107 254.759H80.275ZM82.1211 258.01V254.446H82.815V258.01H82.1211ZM82.4715 253.896C82.3509 253.896 82.2472 253.855 82.1606 253.775C82.0755 253.693 82.0329 253.596 82.0329 253.483C82.0329 253.368 82.0755 253.271 82.1606 253.19C82.2472 253.108 82.3509 253.067 82.4715 253.067C82.5922 253.067 82.6951 253.108 82.7802 253.19C82.8668 253.271 82.9101 253.368 82.9101 253.483C82.9101 253.596 82.8668 253.693 82.7802 253.775C82.6951 253.855 82.5922 253.896 82.4715 253.896ZM86.7978 254.446L85.5052 258.01H84.7626L83.4677 254.446H84.2126L85.1154 257.189H85.1525L86.0529 254.446H86.7978ZM88.865 258.082C88.5138 258.082 88.2113 258.007 87.9576 257.857C87.7054 257.705 87.5105 257.493 87.3728 257.219C87.2366 256.944 87.1686 256.621 87.1686 256.251C87.1686 255.886 87.2366 255.564 87.3728 255.286C87.5105 255.007 87.7023 254.79 87.9483 254.634C88.1958 254.477 88.4852 254.399 88.8162 254.399C89.0174 254.399 89.2123 254.433 89.401 254.499C89.5898 254.566 89.7592 254.67 89.9093 254.812C90.0593 254.955 90.1777 255.14 90.2643 255.367C90.351 255.593 90.3943 255.868 90.3943 256.191V256.437H87.5608V255.917H89.7143C89.7143 255.734 89.6772 255.573 89.6029 255.432C89.5287 255.29 89.4243 255.177 89.2897 255.095C89.1566 255.014 89.0003 254.973 88.8209 254.973C88.6259 254.973 88.4558 255.02 88.3103 255.116C88.1665 255.211 88.0551 255.335 87.9762 255.488C87.8988 255.639 87.8601 255.804 87.8601 255.982V256.388C87.8601 256.626 87.9019 256.829 87.9854 256.996C88.0705 257.163 88.1889 257.291 88.3405 257.379C88.4921 257.466 88.6693 257.509 88.8719 257.509C89.0034 257.509 89.1233 257.49 89.2316 257.453C89.3399 257.415 89.4335 257.357 89.5124 257.282C89.5913 257.206 89.6517 257.112 89.6935 257.001L90.3502 257.119C90.2976 257.313 90.2032 257.482 90.0671 257.627C89.9325 257.771 89.7631 257.883 89.5589 257.964C89.3562 258.043 89.1249 258.082 88.865 258.082ZM92.2015 258.089C91.9756 258.089 91.7714 258.047 91.5889 257.964C91.4063 257.879 91.2616 257.756 91.1549 257.595C91.0497 257.434 90.9971 257.237 90.9971 257.003C90.9971 256.802 91.0358 256.636 91.1131 256.506C91.1905 256.377 91.2949 256.274 91.4264 256.198C91.5579 256.122 91.7049 256.065 91.8673 256.026C92.0298 255.987 92.1953 255.958 92.364 255.938C92.5775 255.913 92.7507 255.893 92.8838 255.878C93.0168 255.861 93.1135 255.833 93.1739 255.796C93.2342 255.759 93.2644 255.699 93.2644 255.615V255.599C93.2644 255.396 93.2071 255.239 93.0926 255.128C92.9797 255.017 92.8111 254.961 92.5867 254.961C92.3531 254.961 92.169 255.013 92.0344 255.116C91.9014 255.218 91.8093 255.332 91.7583 255.458L91.1062 255.309C91.1835 255.092 91.2965 254.918 91.445 254.785C91.595 254.65 91.7675 254.552 91.9625 254.492C92.1574 254.43 92.3624 254.399 92.5775 254.399C92.7198 254.399 92.8706 254.416 93.03 254.45C93.1909 254.483 93.341 254.543 93.4802 254.631C93.621 254.72 93.7362 254.846 93.826 255.01C93.9157 255.172 93.9606 255.383 93.9606 255.643V258.01H93.2829V257.523H93.2551C93.2102 257.613 93.1429 257.701 93.0532 257.787C92.9635 257.874 92.8482 257.946 92.7074 258.003C92.5666 258.061 92.398 258.089 92.2015 258.089ZM92.3524 257.532C92.5442 257.532 92.7082 257.494 92.8443 257.418C92.982 257.343 93.0865 257.244 93.1576 257.121C93.2303 256.998 93.2667 256.865 93.2667 256.725V256.265C93.2419 256.29 93.194 256.313 93.1228 256.335C93.0532 256.355 92.9735 256.373 92.8838 256.388C92.7941 256.402 92.7066 256.415 92.6216 256.428C92.5365 256.438 92.4653 256.448 92.4081 256.455C92.2735 256.472 92.1505 256.501 92.0391 256.541C91.9292 256.581 91.841 256.64 91.7745 256.715C91.7095 256.79 91.677 256.889 91.677 257.012C91.677 257.184 91.7405 257.314 91.8673 257.402C91.9942 257.489 92.1559 257.532 92.3524 257.532ZM95.6576 258.01L94.6086 254.446H95.3257L96.0242 257.063H96.059L96.7599 254.446H97.477L98.1732 257.052H98.208L98.9019 254.446H99.6189L98.5723 258.01H97.8645L97.1405 255.437H97.0871L96.363 258.01H95.6576ZM101.315 258.089C101.089 258.089 100.885 258.047 100.702 257.964C100.52 257.879 100.375 257.756 100.268 257.595C100.163 257.434 100.11 257.237 100.11 257.003C100.11 256.802 100.149 256.636 100.226 256.506C100.304 256.377 100.408 256.274 100.54 256.198C100.671 256.122 100.818 256.065 100.981 256.026C101.143 255.987 101.309 255.958 101.477 255.938C101.691 255.913 101.864 255.893 101.997 255.878C102.13 255.861 102.227 255.833 102.287 255.796C102.347 255.759 102.378 255.699 102.378 255.615V255.599C102.378 255.396 102.32 255.239 102.206 255.128C102.093 255.017 101.924 254.961 101.7 254.961C101.466 254.961 101.282 255.013 101.148 255.116C101.015 255.218 100.923 255.332 100.872 255.458L100.219 255.309C100.297 255.092 100.41 254.918 100.558 254.785C100.708 254.65 100.881 254.552 101.076 254.492C101.271 254.43 101.476 254.399 101.691 254.399C101.833 254.399 101.984 254.416 102.143 254.45C102.304 254.483 102.454 254.543 102.593 254.631C102.734 254.72 102.849 254.846 102.939 255.01C103.029 255.172 103.074 255.383 103.074 255.643V258.01H102.396V257.523H102.368C102.323 257.613 102.256 257.701 102.166 257.787C102.077 257.874 101.961 257.946 101.821 258.003C101.68 258.061 101.511 258.089 101.315 258.089ZM101.466 257.532C101.657 257.532 101.821 257.494 101.958 257.418C102.095 257.343 102.2 257.244 102.271 257.121C102.344 256.998 102.38 256.865 102.38 256.725V256.265C102.355 256.29 102.307 256.313 102.236 256.335C102.166 256.355 102.087 256.373 101.997 256.388C101.907 256.402 101.82 256.415 101.735 256.428C101.65 256.438 101.579 256.448 101.521 256.455C101.387 256.472 101.264 256.501 101.152 256.541C101.042 256.581 100.954 256.64 100.888 256.715C100.823 256.79 100.79 256.889 100.79 257.012C100.79 257.184 100.854 257.314 100.981 257.402C101.107 257.489 101.269 257.532 101.466 257.532ZM104.309 259.347C104.205 259.347 104.111 259.338 104.026 259.321C103.941 259.306 103.877 259.289 103.836 259.27L104.003 258.702C104.13 258.736 104.242 258.751 104.341 258.746C104.441 258.741 104.528 258.704 104.604 258.635C104.681 258.565 104.749 258.451 104.808 258.293L104.894 258.057L103.59 254.446H104.332L105.235 257.212H105.272L106.175 254.446H106.92L105.451 258.486C105.383 258.672 105.296 258.829 105.191 258.957C105.086 259.087 104.96 259.185 104.815 259.249C104.669 259.314 104.501 259.347 104.309 259.347Z" fill="#FF9F2D"/>
<rect x="154.49" y="178.043" width="86.3553" height="89.9029" fill="white"/>
<rect x="154.49" y="178.043" width="86.3553" height="89.9029" stroke="#E8E8E8" stroke-width="0.466785"/>
<path d="M163.266 193.742C162.948 193.737 162.634 193.679 162.326 193.567C162.019 193.456 161.741 193.27 161.49 193.011C161.24 192.751 161.039 192.401 160.888 191.963C160.74 191.524 160.665 190.976 160.665 190.32C160.665 189.698 160.727 189.145 160.85 188.663C160.975 188.18 161.155 187.773 161.389 187.441C161.624 187.107 161.907 186.853 162.239 186.679C162.571 186.505 162.943 186.417 163.356 186.417C163.781 186.417 164.158 186.501 164.487 186.668C164.817 186.835 165.084 187.066 165.288 187.361C165.495 187.656 165.626 187.991 165.681 188.367H164.62C164.548 188.07 164.405 187.827 164.192 187.639C163.978 187.451 163.7 187.357 163.356 187.357C162.834 187.357 162.427 187.585 162.134 188.04C161.844 188.494 161.698 189.127 161.696 189.937H161.748C161.871 189.735 162.022 189.563 162.2 189.422C162.381 189.278 162.583 189.167 162.806 189.091C163.031 189.012 163.268 188.973 163.516 188.973C163.929 188.973 164.303 189.073 164.637 189.275C164.974 189.475 165.242 189.751 165.441 190.104C165.641 190.457 165.741 190.86 165.741 191.315C165.741 191.77 165.637 192.182 165.431 192.551C165.227 192.92 164.939 193.212 164.568 193.428C164.196 193.642 163.762 193.746 163.266 193.742ZM163.262 192.836C163.536 192.836 163.781 192.769 163.997 192.635C164.212 192.5 164.383 192.319 164.508 192.092C164.634 191.864 164.696 191.61 164.696 191.329C164.696 191.055 164.635 190.806 164.512 190.581C164.391 190.356 164.224 190.177 164.011 190.045C163.799 189.912 163.558 189.846 163.286 189.846C163.08 189.846 162.889 189.886 162.712 189.965C162.538 190.044 162.385 190.153 162.253 190.292C162.12 190.431 162.016 190.591 161.939 190.772C161.865 190.951 161.828 191.14 161.828 191.34C161.828 191.606 161.889 191.854 162.012 192.081C162.138 192.308 162.308 192.492 162.524 192.631C162.742 192.768 162.988 192.836 163.262 192.836Z" fill="black"/>
<rect x="240.845" y="178.043" width="86.3553" height="89.9029" fill="white"/>
<rect x="240.845" y="178.043" width="86.3553" height="89.9029" stroke="#E8E8E8" stroke-width="0.466785"/>
<path d="M247.372 193.644L250.484 187.49V187.437H246.885V186.515H251.598V187.469L248.497 193.644H247.372Z" fill="black"/>
<rect x="247.38" y="250.61" width="26.7343" height="10.8007" rx="1.86714" fill="white"/>
<rect x="247.38" y="250.61" width="26.7343" height="10.8007" rx="1.86714" fill="#0085FF" fill-opacity="0.1"/>
<path d="M251.517 256.469H252.222L252.719 257.117L252.953 257.405L253.744 258.437H253.011L252.482 257.748L252.301 257.497L251.517 256.469ZM253.898 255.634C253.898 256.141 253.805 256.578 253.619 256.943C253.433 257.306 253.179 257.586 252.856 257.783C252.534 257.978 252.168 258.075 251.758 258.075C251.346 258.075 250.979 257.978 250.656 257.783C250.334 257.586 250.08 257.306 249.894 256.94C249.709 256.575 249.616 256.14 249.616 255.634C249.616 255.126 249.709 254.691 249.894 254.327C250.08 253.962 250.334 253.682 250.656 253.487C250.979 253.291 251.346 253.193 251.758 253.193C252.168 253.193 252.534 253.291 252.856 253.487C253.179 253.682 253.433 253.962 253.619 254.327C253.805 254.691 253.898 255.126 253.898 255.634ZM253.187 255.634C253.187 255.247 253.125 254.921 252.999 254.657C252.876 254.391 252.706 254.19 252.489 254.054C252.274 253.916 252.03 253.847 251.758 253.847C251.484 253.847 251.24 253.916 251.025 254.054C250.81 254.19 250.639 254.391 250.514 254.657C250.39 254.921 250.328 255.247 250.328 255.634C250.328 256.021 250.39 256.347 250.514 256.613C250.639 256.878 250.81 257.079 251.025 257.217C251.24 257.353 251.484 257.421 251.758 257.421C252.03 257.421 252.274 257.353 252.489 257.217C252.706 257.079 252.876 256.878 252.999 256.613C253.125 256.347 253.187 256.021 253.187 255.634ZM256.994 256.532V254.446H257.69V258.01H257.008V257.393H256.971C256.889 257.583 256.757 257.742 256.576 257.869C256.397 257.994 256.173 258.057 255.906 258.057C255.677 258.057 255.474 258.006 255.298 257.906C255.123 257.804 254.985 257.653 254.884 257.453C254.785 257.254 254.736 257.007 254.736 256.713V254.446H255.43V256.629C255.43 256.872 255.497 257.066 255.632 257.21C255.766 257.354 255.941 257.425 256.156 257.425C256.286 257.425 256.415 257.393 256.544 257.328C256.674 257.263 256.781 257.165 256.866 257.033C256.953 256.902 256.995 256.735 256.994 256.532ZM260.124 258.082C259.79 258.082 259.498 258.006 259.249 257.852C259 257.699 258.807 257.485 258.669 257.21C258.531 256.934 258.462 256.612 258.462 256.244C258.462 255.874 258.531 255.551 258.669 255.274C258.807 254.997 259 254.782 259.249 254.629C259.498 254.476 259.79 254.399 260.124 254.399C260.458 254.399 260.75 254.476 260.999 254.629C261.248 254.782 261.441 254.997 261.579 255.274C261.717 255.551 261.786 255.874 261.786 256.244C261.786 256.612 261.717 256.934 261.579 257.21C261.441 257.485 261.248 257.699 260.999 257.852C260.75 258.006 260.458 258.082 260.124 258.082ZM260.126 257.5C260.343 257.5 260.522 257.442 260.665 257.328C260.807 257.213 260.912 257.061 260.98 256.871C261.05 256.681 261.085 256.471 261.085 256.242C261.085 256.014 261.05 255.806 260.98 255.615C260.912 255.423 260.807 255.27 260.665 255.154C260.522 255.037 260.343 254.979 260.126 254.979C259.908 254.979 259.727 255.037 259.583 255.154C259.441 255.27 259.335 255.423 259.265 255.615C259.197 255.806 259.163 256.014 259.163 256.242C259.163 256.471 259.197 256.681 259.265 256.871C259.335 257.061 259.441 257.213 259.583 257.328C259.727 257.442 259.908 257.5 260.126 257.5ZM264.224 254.446V255.003H262.277V254.446H264.224ZM262.799 253.592H263.493V256.964C263.493 257.098 263.513 257.2 263.553 257.268C263.593 257.334 263.645 257.38 263.709 257.405C263.774 257.428 263.844 257.439 263.92 257.439C263.976 257.439 264.024 257.436 264.066 257.428C264.108 257.42 264.14 257.414 264.164 257.409L264.289 257.982C264.249 257.998 264.191 258.013 264.117 258.029C264.043 258.046 263.95 258.055 263.839 258.057C263.656 258.06 263.486 258.027 263.328 257.959C263.17 257.891 263.043 257.786 262.945 257.644C262.848 257.501 262.799 257.323 262.799 257.108V253.592ZM266.489 258.082C266.138 258.082 265.836 258.007 265.582 257.857C265.33 257.705 265.135 257.493 264.997 257.219C264.861 256.944 264.793 256.621 264.793 256.251C264.793 255.886 264.861 255.564 264.997 255.286C265.135 255.007 265.327 254.79 265.573 254.634C265.82 254.477 266.11 254.399 266.441 254.399C266.642 254.399 266.837 254.433 267.026 254.499C267.214 254.566 267.384 254.67 267.534 254.812C267.684 254.955 267.802 255.14 267.889 255.367C267.975 255.593 268.019 255.868 268.019 256.191V256.437H265.185V255.917H267.339C267.339 255.734 267.302 255.573 267.227 255.432C267.153 255.29 267.049 255.177 266.914 255.095C266.781 255.014 266.625 254.973 266.445 254.973C266.25 254.973 266.08 255.02 265.935 255.116C265.791 255.211 265.68 255.335 265.601 255.488C265.523 255.639 265.485 255.804 265.485 255.982V256.388C265.485 256.626 265.526 256.829 265.61 256.996C265.695 257.163 265.813 257.291 265.965 257.379C266.117 257.466 266.294 257.509 266.496 257.509C266.628 257.509 266.748 257.49 266.856 257.453C266.964 257.415 267.058 257.357 267.137 257.282C267.216 257.206 267.276 257.112 267.318 257.001L267.975 257.119C267.922 257.313 267.828 257.482 267.692 257.627C267.557 257.771 267.388 257.883 267.183 257.964C266.981 258.043 266.749 258.082 266.489 258.082ZM271.46 255.316L270.831 255.427C270.805 255.347 270.763 255.27 270.706 255.198C270.65 255.125 270.574 255.065 270.478 255.019C270.382 254.973 270.262 254.949 270.118 254.949C269.922 254.949 269.758 254.993 269.626 255.082C269.495 255.168 269.429 255.28 269.429 255.418C269.429 255.537 269.473 255.633 269.561 255.706C269.65 255.779 269.792 255.838 269.988 255.885L270.555 256.014C270.883 256.09 271.127 256.207 271.288 256.365C271.449 256.523 271.529 256.728 271.529 256.98C271.529 257.193 271.468 257.384 271.344 257.551C271.222 257.716 271.051 257.846 270.831 257.941C270.613 258.035 270.36 258.082 270.072 258.082C269.673 258.082 269.347 257.997 269.095 257.827C268.843 257.655 268.688 257.412 268.631 257.096L269.302 256.994C269.343 257.169 269.429 257.301 269.559 257.391C269.689 257.479 269.859 257.523 270.067 257.523C270.295 257.523 270.477 257.476 270.613 257.381C270.749 257.285 270.817 257.169 270.817 257.031C270.817 256.92 270.775 256.826 270.692 256.75C270.61 256.674 270.484 256.617 270.313 256.578L269.71 256.446C269.377 256.37 269.131 256.25 268.972 256.084C268.814 255.919 268.735 255.709 268.735 255.455C268.735 255.245 268.794 255.061 268.912 254.903C269.029 254.745 269.192 254.622 269.399 254.534C269.606 254.444 269.844 254.399 270.111 254.399C270.497 254.399 270.8 254.483 271.021 254.65C271.242 254.815 271.389 255.037 271.46 255.316Z" fill="#0085FF"/>
<rect x="327.2" y="178.043" width="86.3553" height="89.9029" fill="white"/>
<rect x="327.2" y="178.043" width="86.3553" height="89.9029" stroke="#E8E8E8" stroke-width="0.466785"/>
<path d="M335.896 193.742C335.397 193.742 334.956 193.656 334.573 193.484C334.193 193.312 333.895 193.075 333.679 192.774C333.463 192.472 333.356 192.129 333.358 191.743C333.356 191.442 333.418 191.164 333.543 190.911C333.671 190.656 333.843 190.444 334.062 190.274C334.28 190.103 334.523 189.994 334.793 189.947V189.905C334.438 189.82 334.153 189.629 333.94 189.335C333.726 189.04 333.621 188.701 333.623 188.318C333.621 187.954 333.717 187.629 333.912 187.343C334.109 187.056 334.38 186.829 334.723 186.665C335.066 186.5 335.458 186.417 335.896 186.417C336.33 186.417 336.718 186.501 337.059 186.668C337.402 186.833 337.673 187.059 337.87 187.347C338.067 187.632 338.167 187.956 338.169 188.318C338.167 188.701 338.058 189.04 337.842 189.335C337.626 189.629 337.345 189.82 337 189.905V189.947C337.266 189.994 337.507 190.103 337.72 190.274C337.936 190.444 338.108 190.656 338.235 190.911C338.365 191.164 338.431 191.442 338.434 191.743C338.431 192.129 338.322 192.472 338.107 192.774C337.891 193.075 337.591 193.312 337.208 193.484C336.828 193.656 336.39 193.742 335.896 193.742ZM335.896 192.861C336.191 192.861 336.446 192.812 336.662 192.715C336.878 192.615 337.045 192.477 337.163 192.3C337.282 192.122 337.342 191.913 337.344 191.674C337.342 191.425 337.277 191.206 337.149 191.016C337.024 190.826 336.853 190.676 336.638 190.567C336.422 190.458 336.175 190.403 335.896 190.403C335.615 190.403 335.366 190.458 335.148 190.567C334.93 190.676 334.758 190.826 334.633 191.016C334.507 191.206 334.446 191.425 334.448 191.674C334.446 191.913 334.503 192.122 334.619 192.3C334.737 192.477 334.905 192.615 335.123 192.715C335.341 192.812 335.599 192.861 335.896 192.861ZM335.896 189.543C336.133 189.543 336.343 189.496 336.526 189.401C336.71 189.306 336.853 189.173 336.958 189.004C337.065 188.834 337.119 188.636 337.121 188.409C337.119 188.186 337.066 187.991 336.961 187.824C336.859 187.657 336.716 187.528 336.533 187.437C336.35 187.345 336.137 187.298 335.896 187.298C335.65 187.298 335.434 187.345 335.249 187.437C335.065 187.528 334.923 187.657 334.82 187.824C334.718 187.991 334.668 188.186 334.671 188.409C334.668 188.636 334.72 188.834 334.824 189.004C334.928 189.173 335.072 189.306 335.256 189.401C335.441 189.496 335.655 189.543 335.896 189.543Z" fill="black"/>
<rect x="413.555" y="178.043" width="86.3553" height="89.9029" fill="white"/>
<rect x="413.555" y="178.043" width="86.3553" height="89.9029" stroke="#E8E8E8" stroke-width="0.466785"/>
<path d="M422.213 186.417C422.531 186.42 422.844 186.478 423.153 186.592C423.462 186.705 423.74 186.891 423.988 187.148C424.239 187.406 424.439 187.754 424.587 188.193C424.738 188.629 424.815 189.172 424.817 189.822C424.817 190.446 424.754 191.002 424.629 191.489C424.504 191.974 424.324 192.384 424.089 192.718C423.857 193.052 423.575 193.306 423.243 193.48C422.912 193.654 422.538 193.742 422.123 193.742C421.698 193.742 421.321 193.658 420.991 193.491C420.662 193.324 420.394 193.093 420.187 192.798C419.981 192.501 419.852 192.16 419.801 191.775H420.862C420.932 192.081 421.074 192.329 421.287 192.52C421.503 192.708 421.781 192.802 422.123 192.802C422.645 192.802 423.052 192.574 423.344 192.119C423.637 191.662 423.784 191.024 423.787 190.205H423.731C423.61 190.404 423.459 190.576 423.278 190.72C423.1 190.864 422.899 190.975 422.676 191.054C422.453 191.133 422.215 191.173 421.962 191.173C421.552 191.173 421.178 191.072 420.842 190.87C420.505 190.668 420.237 190.39 420.037 190.038C419.838 189.685 419.738 189.282 419.738 188.83C419.738 188.38 419.84 187.971 420.044 187.605C420.251 187.238 420.539 186.948 420.908 186.734C421.279 186.518 421.714 186.413 422.213 186.417ZM422.217 187.323C421.945 187.323 421.7 187.39 421.482 187.524C421.266 187.657 421.096 187.837 420.97 188.064C420.845 188.289 420.782 188.54 420.782 188.816C420.782 189.092 420.843 189.343 420.963 189.568C421.086 189.791 421.254 189.968 421.465 190.1C421.678 190.23 421.922 190.295 422.196 190.295C422.4 190.295 422.59 190.256 422.767 190.177C422.943 190.098 423.097 189.989 423.23 189.85C423.362 189.708 423.465 189.548 423.539 189.369C423.614 189.191 423.651 189.003 423.651 188.805C423.651 188.543 423.588 188.3 423.463 188.074C423.34 187.849 423.17 187.668 422.955 187.531C422.739 187.392 422.493 187.323 422.217 187.323Z" fill="black"/>
<rect x="420.09" y="237.009" width="26.7343" height="10.8007" rx="1.86714" fill="white"/>
<rect x="420.09" y="237.009" width="26.7343" height="10.8007" rx="1.86714" fill="#0085FF" fill-opacity="0.1"/>
<path d="M424.227 242.868H424.933L425.429 243.515L425.664 243.803L426.455 244.836H425.722L425.193 244.147L425.012 243.896L424.227 242.868ZM426.608 242.033C426.608 242.54 426.515 242.976 426.33 243.341C426.144 243.705 425.89 243.985 425.566 244.182C425.244 244.376 424.878 244.474 424.468 244.474C424.057 244.474 423.69 244.376 423.366 244.182C423.044 243.985 422.791 243.704 422.605 243.339C422.419 242.974 422.327 242.538 422.327 242.033C422.327 241.525 422.419 241.09 422.605 240.726C422.791 240.361 423.044 240.081 423.366 239.886C423.69 239.689 424.057 239.591 424.468 239.591C424.878 239.591 425.244 239.689 425.566 239.886C425.89 240.081 426.144 240.361 426.33 240.726C426.515 241.09 426.608 241.525 426.608 242.033ZM425.898 242.033C425.898 241.646 425.835 241.32 425.71 241.056C425.586 240.789 425.416 240.588 425.199 240.452C424.984 240.315 424.741 240.246 424.468 240.246C424.195 240.246 423.95 240.315 423.735 240.452C423.52 240.588 423.35 240.789 423.225 241.056C423.101 241.32 423.039 241.646 423.039 242.033C423.039 242.419 423.101 242.746 423.225 243.012C423.35 243.276 423.52 243.478 423.735 243.615C423.95 243.751 424.195 243.819 424.468 243.819C424.741 243.819 424.984 243.751 425.199 243.615C425.416 243.478 425.586 243.276 425.71 243.012C425.835 242.746 425.898 242.419 425.898 242.033ZM429.704 242.931V240.844H430.401V244.409H429.718V243.792H429.681C429.599 243.982 429.468 244.141 429.287 244.267C429.107 244.393 428.884 244.455 428.616 244.455C428.387 244.455 428.184 244.405 428.008 244.305C427.833 244.202 427.696 244.052 427.595 243.852C427.496 243.652 427.446 243.406 427.446 243.112V240.844H428.14V243.028C428.14 243.271 428.208 243.464 428.342 243.608C428.477 243.752 428.652 243.824 428.867 243.824C428.997 243.824 429.126 243.792 429.254 243.727C429.384 243.662 429.492 243.563 429.577 243.432C429.663 243.3 429.706 243.133 429.704 242.931ZM432.834 244.481C432.5 244.481 432.209 244.404 431.96 244.251C431.711 244.098 431.517 243.884 431.379 243.608C431.242 243.333 431.173 243.011 431.173 242.643C431.173 242.273 431.242 241.95 431.379 241.673C431.517 241.396 431.711 241.181 431.96 241.028C432.209 240.875 432.5 240.798 432.834 240.798C433.169 240.798 433.46 240.875 433.709 241.028C433.958 241.181 434.152 241.396 434.29 241.673C434.427 241.95 434.496 242.273 434.496 242.643C434.496 243.011 434.427 243.333 434.29 243.608C434.152 243.884 433.958 244.098 433.709 244.251C433.46 244.404 433.169 244.481 432.834 244.481ZM432.837 243.898C433.053 243.898 433.233 243.841 433.375 243.727C433.518 243.612 433.623 243.46 433.691 243.269C433.76 243.079 433.795 242.87 433.795 242.641C433.795 242.413 433.76 242.204 433.691 242.014C433.623 241.822 433.518 241.668 433.375 241.552C433.233 241.436 433.053 241.378 432.837 241.378C432.619 241.378 432.438 241.436 432.294 241.552C432.151 241.668 432.045 241.822 431.976 242.014C431.908 242.204 431.874 242.413 431.874 242.641C431.874 242.87 431.908 243.079 431.976 243.269C432.045 243.46 432.151 243.612 432.294 243.727C432.438 243.841 432.619 243.898 432.837 243.898ZM436.935 240.844V241.401H434.987V240.844H436.935ZM435.51 239.99H436.204V243.362C436.204 243.497 436.224 243.598 436.264 243.666C436.304 243.733 436.356 243.778 436.419 243.803C436.484 243.826 436.555 243.838 436.631 243.838C436.686 243.838 436.735 243.834 436.777 243.826C436.818 243.819 436.851 243.813 436.874 243.808L436.999 244.381C436.959 244.397 436.902 244.412 436.828 244.428C436.754 244.445 436.661 244.454 436.549 244.455C436.367 244.458 436.197 244.426 436.039 244.358C435.881 244.29 435.753 244.185 435.656 244.042C435.558 243.9 435.51 243.721 435.51 243.506V239.99ZM439.2 244.481C438.849 244.481 438.546 244.406 438.293 244.256C438.041 244.104 437.846 243.891 437.708 243.618C437.572 243.342 437.504 243.02 437.504 242.65C437.504 242.285 437.572 241.963 437.708 241.684C437.846 241.406 438.037 241.189 438.283 241.032C438.531 240.876 438.82 240.798 439.151 240.798C439.352 240.798 439.547 240.831 439.736 240.898C439.925 240.964 440.094 241.069 440.244 241.211C440.394 241.353 440.513 241.538 440.599 241.766C440.686 241.992 440.729 242.266 440.729 242.59V242.836H437.896V242.316H440.049C440.049 242.133 440.012 241.971 439.938 241.831C439.864 241.688 439.759 241.576 439.625 241.494C439.492 241.412 439.335 241.371 439.156 241.371C438.961 241.371 438.791 241.419 438.645 241.515C438.502 241.609 438.39 241.733 438.311 241.886C438.234 242.038 438.195 242.203 438.195 242.381V242.787C438.195 243.025 438.237 243.228 438.321 243.395C438.406 243.562 438.524 243.69 438.676 243.778C438.827 243.864 439.004 243.908 439.207 243.908C439.339 243.908 439.458 243.889 439.567 243.852C439.675 243.813 439.769 243.756 439.848 243.68C439.926 243.604 439.987 243.511 440.029 243.399L440.685 243.518C440.633 243.711 440.538 243.881 440.402 244.026C440.268 244.17 440.098 244.282 439.894 244.363C439.691 244.441 439.46 244.481 439.2 244.481ZM444.17 241.715L443.541 241.826C443.515 241.746 443.473 241.669 443.416 241.596C443.36 241.524 443.285 241.464 443.189 241.418C443.093 241.371 442.973 241.348 442.829 241.348C442.633 241.348 442.469 241.392 442.337 241.48C442.206 241.567 442.14 241.679 442.14 241.817C442.14 241.936 442.184 242.032 442.272 242.105C442.36 242.177 442.503 242.237 442.699 242.283L443.265 242.413C443.593 242.489 443.838 242.606 443.999 242.764C444.16 242.921 444.24 243.126 444.24 243.379C444.24 243.592 444.178 243.782 444.054 243.949C443.932 244.115 443.761 244.245 443.541 244.339C443.323 244.434 443.07 244.481 442.783 244.481C442.383 244.481 442.058 244.396 441.806 244.226C441.553 244.054 441.399 243.81 441.341 243.495L442.012 243.392C442.054 243.567 442.14 243.7 442.27 243.789C442.4 243.878 442.569 243.922 442.778 243.922C443.005 243.922 443.187 243.874 443.323 243.78C443.459 243.684 443.528 243.567 443.528 243.43C443.528 243.318 443.486 243.225 443.402 243.149C443.32 243.073 443.194 243.016 443.024 242.977L442.421 242.845C442.088 242.769 441.842 242.648 441.683 242.483C441.525 242.317 441.446 242.108 441.446 241.854C441.446 241.643 441.505 241.459 441.622 241.302C441.74 241.144 441.902 241.021 442.11 240.933C442.317 240.843 442.554 240.798 442.822 240.798C443.207 240.798 443.511 240.882 443.732 241.049C443.953 241.214 444.099 241.436 444.17 241.715Z" fill="#0085FF"/>
<rect x="420.09" y="250.61" width="34.7343" height="10.8007" rx="1.86714" fill="white"/>
<rect x="420.09" y="250.61" width="34.7343" height="10.8007" rx="1.86714" fill="#FF961B" fill-opacity="0.1"/>
<path d="M425.696 254.759C425.651 254.618 425.591 254.492 425.515 254.381C425.441 254.268 425.352 254.172 425.248 254.093C425.145 254.013 425.026 253.951 424.893 253.91C424.762 253.868 424.617 253.847 424.459 253.847C424.192 253.847 423.95 253.916 423.735 254.054C423.52 254.191 423.35 254.393 423.225 254.659C423.101 254.924 423.039 255.248 423.039 255.632C423.039 256.017 423.102 256.342 423.227 256.609C423.352 256.875 423.524 257.077 423.742 257.214C423.96 257.352 424.209 257.421 424.487 257.421C424.745 257.421 424.971 257.368 425.162 257.263C425.356 257.158 425.505 257.009 425.61 256.817C425.717 256.624 425.77 256.397 425.77 256.135L425.956 256.17H424.596V255.578H426.464V256.119C426.464 256.518 426.379 256.865 426.209 257.159C426.04 257.451 425.807 257.677 425.508 257.836C425.211 257.996 424.871 258.075 424.487 258.075C424.057 258.075 423.68 257.976 423.355 257.778C423.031 257.58 422.779 257.299 422.598 256.936C422.417 256.571 422.327 256.137 422.327 255.636C422.327 255.257 422.379 254.917 422.484 254.615C422.59 254.313 422.737 254.057 422.928 253.847C423.119 253.635 423.345 253.473 423.603 253.362C423.863 253.249 424.147 253.193 424.455 253.193C424.711 253.193 424.95 253.23 425.172 253.306C425.394 253.382 425.593 253.49 425.766 253.629C425.941 253.768 426.085 253.934 426.2 254.125C426.314 254.316 426.392 254.527 426.432 254.759H425.696ZM427.542 258.01V254.446H428.236V258.01H427.542ZM427.893 253.896C427.772 253.896 427.668 253.855 427.582 253.775C427.497 253.693 427.454 253.596 427.454 253.483C427.454 253.368 427.497 253.271 427.582 253.19C427.668 253.108 427.772 253.067 427.893 253.067C428.013 253.067 428.116 253.108 428.201 253.19C428.288 253.271 428.331 253.368 428.331 253.483C428.331 253.596 428.288 253.693 428.201 253.775C428.116 253.855 428.013 253.896 427.893 253.896ZM432.219 254.446L430.926 258.01H430.184L428.889 254.446H429.634L430.537 257.189H430.574L431.474 254.446H432.219ZM434.286 258.082C433.935 258.082 433.632 258.007 433.379 257.857C433.127 257.705 432.932 257.493 432.794 257.219C432.658 256.944 432.59 256.621 432.59 256.251C432.59 255.886 432.658 255.564 432.794 255.286C432.932 255.007 433.123 254.79 433.369 254.634C433.617 254.477 433.906 254.399 434.237 254.399C434.439 254.399 434.633 254.433 434.822 254.499C435.011 254.566 435.18 254.67 435.33 254.812C435.48 254.955 435.599 255.14 435.685 255.367C435.772 255.593 435.815 255.868 435.815 256.191V256.437H432.982V255.917H435.135C435.135 255.734 435.098 255.573 435.024 255.432C434.95 255.29 434.845 255.177 434.711 255.095C434.578 255.014 434.421 254.973 434.242 254.973C434.047 254.973 433.877 255.02 433.731 255.116C433.588 255.211 433.476 255.335 433.397 255.488C433.32 255.639 433.281 255.804 433.281 255.982V256.388C433.281 256.626 433.323 256.829 433.407 256.996C433.492 257.163 433.61 257.291 433.762 257.379C433.913 257.466 434.09 257.509 434.293 257.509C434.425 257.509 434.544 257.49 434.653 257.453C434.761 257.415 434.855 257.357 434.934 257.282C435.012 257.206 435.073 257.112 435.115 257.001L435.771 257.119C435.719 257.313 435.624 257.482 435.488 257.627C435.354 257.771 435.184 257.883 434.98 257.964C434.777 258.043 434.546 258.082 434.286 258.082ZM437.623 258.089C437.397 258.089 437.193 258.047 437.01 257.964C436.827 257.879 436.683 257.756 436.576 257.595C436.471 257.434 436.418 257.237 436.418 257.003C436.418 256.802 436.457 256.636 436.534 256.506C436.612 256.377 436.716 256.274 436.848 256.198C436.979 256.122 437.126 256.065 437.288 256.026C437.451 255.987 437.616 255.958 437.785 255.938C437.999 255.913 438.172 255.893 438.305 255.878C438.438 255.861 438.535 255.833 438.595 255.796C438.655 255.759 438.686 255.699 438.686 255.615V255.599C438.686 255.396 438.628 255.239 438.514 255.128C438.401 255.017 438.232 254.961 438.008 254.961C437.774 254.961 437.59 255.013 437.456 255.116C437.323 255.218 437.23 255.332 437.179 255.458L436.527 255.309C436.605 255.092 436.718 254.918 436.866 254.785C437.016 254.65 437.189 254.552 437.384 254.492C437.579 254.43 437.784 254.399 437.999 254.399C438.141 254.399 438.292 254.416 438.451 254.45C438.612 254.483 438.762 254.543 438.901 254.631C439.042 254.72 439.157 254.846 439.247 255.01C439.337 255.172 439.382 255.383 439.382 255.643V258.01H438.704V257.523H438.676C438.631 257.613 438.564 257.701 438.474 257.787C438.385 257.874 438.269 257.946 438.129 258.003C437.988 258.061 437.819 258.089 437.623 258.089ZM437.773 257.532C437.965 257.532 438.129 257.494 438.265 257.418C438.403 257.343 438.508 257.244 438.579 257.121C438.651 256.998 438.688 256.865 438.688 256.725V256.265C438.663 256.29 438.615 256.313 438.544 256.335C438.474 256.355 438.395 256.373 438.305 256.388C438.215 256.402 438.128 256.415 438.043 256.428C437.958 256.438 437.886 256.448 437.829 256.455C437.695 256.472 437.572 256.501 437.46 256.541C437.35 256.581 437.262 256.64 437.196 256.715C437.131 256.79 437.098 256.889 437.098 257.012C437.098 257.184 437.162 257.314 437.288 257.402C437.415 257.489 437.577 257.532 437.773 257.532ZM441.079 258.01L440.03 254.446H440.747L441.445 257.063H441.48L442.181 254.446H442.898L443.594 257.052H443.629L444.323 254.446H445.04L443.993 258.01H443.286L442.562 255.437H442.508L441.784 258.01H441.079ZM446.736 258.089C446.51 258.089 446.306 258.047 446.123 257.964C445.941 257.879 445.796 257.756 445.689 257.595C445.584 257.434 445.531 257.237 445.531 257.003C445.531 256.802 445.57 256.636 445.648 256.506C445.725 256.377 445.829 256.274 445.961 256.198C446.092 256.122 446.239 256.065 446.402 256.026C446.564 255.987 446.73 255.958 446.898 255.938C447.112 255.913 447.285 255.893 447.418 255.878C447.551 255.861 447.648 255.833 447.708 255.796C447.769 255.759 447.799 255.699 447.799 255.615V255.599C447.799 255.396 447.742 255.239 447.627 255.128C447.514 255.017 447.345 254.961 447.121 254.961C446.888 254.961 446.703 255.013 446.569 255.116C446.436 255.218 446.344 255.332 446.293 255.458L445.641 255.309C445.718 255.092 445.831 254.918 445.979 254.785C446.129 254.65 446.302 254.552 446.497 254.492C446.692 254.43 446.897 254.399 447.112 254.399C447.254 254.399 447.405 254.416 447.564 254.45C447.725 254.483 447.875 254.543 448.015 254.631C448.155 254.72 448.271 254.846 448.36 255.01C448.45 255.172 448.495 255.383 448.495 255.643V258.01H447.817V257.523H447.789C447.745 257.613 447.677 257.701 447.588 257.787C447.498 257.874 447.383 257.946 447.242 258.003C447.101 258.061 446.932 258.089 446.736 258.089ZM446.887 257.532C447.079 257.532 447.243 257.494 447.379 257.418C447.516 257.343 447.621 257.244 447.692 257.121C447.765 256.998 447.801 256.865 447.801 256.725V256.265C447.776 256.29 447.728 256.313 447.657 256.335C447.588 256.355 447.508 256.373 447.418 256.388C447.328 256.402 447.241 256.415 447.156 256.428C447.071 256.438 447 256.448 446.942 256.455C446.808 256.472 446.685 256.501 446.573 256.541C446.464 256.581 446.375 256.64 446.309 256.715C446.244 256.79 446.211 256.889 446.211 257.012C446.211 257.184 446.275 257.314 446.402 257.402C446.529 257.489 446.69 257.532 446.887 257.532ZM449.73 259.347C449.626 259.347 449.532 259.338 449.447 259.321C449.362 259.306 449.299 259.289 449.257 259.27L449.424 258.702C449.551 258.736 449.664 258.751 449.763 258.746C449.862 258.741 449.949 258.704 450.025 258.635C450.102 258.565 450.17 258.451 450.229 258.293L450.315 258.057L449.011 254.446H449.753L450.656 257.212H450.693L451.596 254.446H452.341L450.872 258.486C450.804 258.672 450.717 258.829 450.612 258.957C450.507 259.087 450.381 259.185 450.236 259.249C450.091 259.314 449.922 259.347 449.73 259.347Z" fill="#FF9F2D"/>
<rect x="68.1342" y="267.946" width="86.3553" height="89.9029" fill="white"/>
<rect x="68.1342" y="267.946" width="86.3553" height="89.9029" stroke="#E8E8E8" stroke-width="0.466785"/>
<path d="M77.1261 276.418V283.547H76.047V277.497H76.0053L74.2996 278.611V277.58L76.0784 276.418H77.1261ZM79.0546 283.547V282.767L81.467 280.268C81.7245 279.996 81.9369 279.758 82.104 279.554C82.2734 279.348 82.3999 279.152 82.4834 278.966C82.5669 278.78 82.6087 278.583 82.6087 278.374C82.6087 278.137 82.553 277.933 82.4416 277.761C82.3302 277.587 82.1782 277.454 81.9856 277.361C81.793 277.266 81.576 277.218 81.3347 277.218C81.0794 277.218 80.8566 277.271 80.6663 277.375C80.476 277.479 80.3298 277.627 80.2277 277.817C80.1256 278.007 80.0746 278.23 80.0746 278.486H79.0477C79.0477 278.052 79.1474 277.672 79.347 277.347C79.5466 277.022 79.8204 276.771 80.1685 276.592C80.5166 276.411 80.9123 276.32 81.3556 276.32C81.8035 276.32 82.198 276.41 82.5391 276.588C82.8826 276.765 83.1506 277.006 83.3432 277.312C83.5358 277.616 83.6321 277.96 83.6321 278.343C83.6321 278.607 83.5822 278.866 83.4825 279.119C83.385 279.372 83.2144 279.654 82.9707 279.965C82.7271 280.274 82.3883 280.648 81.9543 281.089L80.5375 282.572V282.624H83.747V283.547H79.0546Z" fill="black"/>
<rect x="154.49" y="267.946" width="86.3553" height="89.9029" fill="white"/>
<rect x="154.49" y="267.946" width="86.3553" height="89.9029" stroke="#E8E8E8" stroke-width="0.466785"/>
<path d="M163.481 276.418V283.547H162.402V277.497H162.361L160.655 278.611V277.58L162.434 276.418H163.481ZM167.892 283.644C167.414 283.644 166.987 283.562 166.611 283.397C166.237 283.232 165.941 283.004 165.723 282.711C165.507 282.417 165.391 282.076 165.375 281.688H166.468C166.482 281.899 166.553 282.083 166.68 282.238C166.81 282.391 166.98 282.51 167.189 282.593C167.398 282.677 167.63 282.718 167.885 282.718C168.166 282.718 168.414 282.67 168.63 282.572C168.848 282.475 169.019 282.339 169.142 282.165C169.265 281.989 169.326 281.785 169.326 281.556C169.326 281.317 169.265 281.107 169.142 280.926C169.021 280.742 168.843 280.598 168.609 280.494C168.377 280.39 168.096 280.337 167.767 280.337H167.164V279.46H167.767C168.031 279.46 168.263 279.413 168.463 279.317C168.665 279.222 168.822 279.09 168.936 278.921C169.05 278.749 169.107 278.548 169.107 278.318C169.107 278.098 169.057 277.906 168.957 277.744C168.86 277.579 168.72 277.45 168.539 277.358C168.361 277.265 168.149 277.218 167.906 277.218C167.674 277.218 167.457 277.261 167.255 277.347C167.055 277.431 166.893 277.551 166.767 277.709C166.642 277.865 166.575 278.052 166.566 278.27H165.525C165.536 277.884 165.65 277.546 165.866 277.253C166.084 276.961 166.372 276.732 166.729 276.567C167.087 276.403 167.483 276.32 167.92 276.32C168.377 276.32 168.771 276.41 169.103 276.588C169.437 276.765 169.695 277 169.876 277.295C170.059 277.59 170.15 277.912 170.148 278.263C170.15 278.662 170.038 279.001 169.813 279.279C169.591 279.558 169.294 279.744 168.922 279.84V279.895C169.396 279.967 169.762 280.155 170.022 280.459C170.284 280.763 170.414 281.14 170.412 281.591C170.414 281.983 170.305 282.334 170.085 282.645C169.867 282.956 169.569 283.201 169.19 283.38C168.812 283.556 168.379 283.644 167.892 283.644Z" fill="black"/>
<rect x="161.024" y="340.513" width="26.7343" height="10.8007" rx="1.86714" fill="white"/>
<rect x="161.024" y="340.513" width="26.7343" height="10.8007" rx="1.86714" fill="#0085FF" fill-opacity="0.1"/>
<path d="M165.161 346.372H165.867L166.363 347.02L166.598 347.307L167.389 348.34H166.656L166.127 347.651L165.946 347.4L165.161 346.372ZM167.542 345.537C167.542 346.044 167.449 346.48 167.264 346.846C167.078 347.209 166.824 347.489 166.5 347.686C166.178 347.881 165.813 347.978 165.403 347.978C164.991 347.978 164.624 347.881 164.3 347.686C163.979 347.489 163.725 347.208 163.539 346.843C163.353 346.478 163.261 346.043 163.261 345.537C163.261 345.029 163.353 344.594 163.539 344.23C163.725 343.865 163.979 343.585 164.3 343.39C164.624 343.194 164.991 343.095 165.403 343.095C165.813 343.095 166.178 343.194 166.5 343.39C166.824 343.585 167.078 343.865 167.264 344.23C167.449 344.594 167.542 345.029 167.542 345.537ZM166.832 345.537C166.832 345.15 166.769 344.824 166.644 344.56C166.52 344.294 166.35 344.092 166.134 343.956C165.919 343.819 165.675 343.75 165.403 343.75C165.129 343.75 164.884 343.819 164.669 343.956C164.454 344.092 164.284 344.294 164.159 344.56C164.035 344.824 163.973 345.15 163.973 345.537C163.973 345.924 164.035 346.25 164.159 346.516C164.284 346.781 164.454 346.982 164.669 347.119C164.884 347.256 165.129 347.324 165.403 347.324C165.675 347.324 165.919 347.256 166.134 347.119C166.35 346.982 166.52 346.781 166.644 346.516C166.769 346.25 166.832 345.924 166.832 345.537ZM170.639 346.435V344.349H171.335V347.913H170.653V347.296H170.615C170.533 347.486 170.402 347.645 170.221 347.772C170.041 347.897 169.818 347.959 169.55 347.959C169.321 347.959 169.119 347.909 168.942 347.809C168.767 347.707 168.63 347.556 168.529 347.356C168.43 347.157 168.381 346.91 168.381 346.616V344.349H169.074V346.532C169.074 346.775 169.142 346.969 169.276 347.112C169.411 347.256 169.586 347.328 169.801 347.328C169.931 347.328 170.06 347.296 170.188 347.231C170.318 347.166 170.426 347.068 170.511 346.936C170.598 346.805 170.64 346.637 170.639 346.435ZM173.769 347.985C173.434 347.985 173.143 347.908 172.894 347.755C172.645 347.602 172.451 347.388 172.314 347.112C172.176 346.837 172.107 346.515 172.107 346.147C172.107 345.777 172.176 345.454 172.314 345.177C172.451 344.9 172.645 344.685 172.894 344.532C173.143 344.379 173.434 344.302 173.769 344.302C174.103 344.302 174.394 344.379 174.644 344.532C174.893 344.685 175.086 344.9 175.224 345.177C175.361 345.454 175.43 345.777 175.43 346.147C175.43 346.515 175.361 346.837 175.224 347.112C175.086 347.388 174.893 347.602 174.644 347.755C174.394 347.908 174.103 347.985 173.769 347.985ZM173.771 347.403C173.988 347.403 174.167 347.345 174.309 347.231C174.452 347.116 174.557 346.964 174.625 346.774C174.695 346.583 174.729 346.374 174.729 346.145C174.729 345.917 174.695 345.708 174.625 345.518C174.557 345.326 174.452 345.172 174.309 345.056C174.167 344.94 173.988 344.882 173.771 344.882C173.553 344.882 173.372 344.94 173.228 345.056C173.086 345.172 172.98 345.326 172.91 345.518C172.842 345.708 172.808 345.917 172.808 346.145C172.808 346.374 172.842 346.583 172.91 346.774C172.98 346.964 173.086 347.116 173.228 347.231C173.372 347.345 173.553 347.403 173.771 347.403ZM177.869 344.349V344.906H175.922V344.349H177.869ZM176.444 343.495H177.138V346.866C177.138 347.001 177.158 347.102 177.198 347.17C177.238 347.237 177.29 347.283 177.353 347.307C177.418 347.331 177.489 347.342 177.565 347.342C177.62 347.342 177.669 347.338 177.711 347.331C177.753 347.323 177.785 347.317 177.808 347.312L177.934 347.885C177.893 347.901 177.836 347.916 177.762 347.932C177.688 347.949 177.595 347.958 177.483 347.959C177.301 347.963 177.131 347.93 176.973 347.862C176.815 347.794 176.687 347.689 176.59 347.546C176.493 347.404 176.444 347.225 176.444 347.01V343.495ZM180.134 347.985C179.783 347.985 179.481 347.91 179.227 347.76C178.975 347.608 178.78 347.396 178.642 347.122C178.506 346.846 178.438 346.524 178.438 346.154C178.438 345.789 178.506 345.467 178.642 345.189C178.78 344.91 178.972 344.693 179.218 344.537C179.465 344.38 179.754 344.302 180.085 344.302C180.287 344.302 180.482 344.335 180.67 344.402C180.859 344.468 181.028 344.573 181.179 344.715C181.329 344.858 181.447 345.042 181.534 345.27C181.62 345.496 181.664 345.77 181.664 346.094V346.34H178.83V345.82H180.984C180.984 345.637 180.946 345.476 180.872 345.335C180.798 345.192 180.693 345.08 180.559 344.998C180.426 344.916 180.27 344.875 180.09 344.875C179.895 344.875 179.725 344.923 179.58 345.019C179.436 345.114 179.324 345.237 179.245 345.391C179.168 345.542 179.129 345.707 179.129 345.885V346.291C179.129 346.529 179.171 346.732 179.255 346.899C179.34 347.066 179.458 347.194 179.61 347.282C179.761 347.369 179.938 347.412 180.141 347.412C180.273 347.412 180.393 347.393 180.501 347.356C180.609 347.317 180.703 347.26 180.782 347.184C180.861 347.109 180.921 347.015 180.963 346.904L181.619 347.022C181.567 347.215 181.472 347.385 181.336 347.53C181.202 347.674 181.032 347.786 180.828 347.867C180.625 347.946 180.394 347.985 180.134 347.985ZM185.104 345.219L184.476 345.33C184.449 345.25 184.408 345.173 184.35 345.1C184.295 345.028 184.219 344.968 184.123 344.922C184.027 344.875 183.907 344.852 183.763 344.852C183.567 344.852 183.403 344.896 183.271 344.984C183.14 345.071 183.074 345.183 183.074 345.321C183.074 345.44 183.118 345.536 183.206 345.609C183.294 345.681 183.437 345.741 183.633 345.787L184.199 345.917C184.527 345.993 184.772 346.11 184.933 346.268C185.094 346.426 185.174 346.631 185.174 346.883C185.174 347.096 185.112 347.287 184.988 347.454C184.866 347.619 184.695 347.749 184.476 347.843C184.257 347.938 184.004 347.985 183.717 347.985C183.318 347.985 182.992 347.9 182.74 347.73C182.488 347.558 182.333 347.314 182.276 346.999L182.946 346.897C182.988 347.071 183.074 347.204 183.204 347.293C183.334 347.382 183.503 347.426 183.712 347.426C183.94 347.426 184.121 347.379 184.257 347.284C184.394 347.188 184.462 347.071 184.462 346.934C184.462 346.822 184.42 346.729 184.336 346.653C184.254 346.577 184.128 346.52 183.958 346.481L183.355 346.349C183.022 346.273 182.776 346.152 182.617 345.987C182.459 345.821 182.38 345.612 182.38 345.358C182.38 345.148 182.439 344.964 182.556 344.806C182.674 344.648 182.836 344.525 183.044 344.437C183.251 344.347 183.489 344.302 183.756 344.302C184.141 344.302 184.445 344.386 184.666 344.553C184.887 344.718 185.033 344.94 185.104 345.219Z" fill="#0085FF"/>
<rect x="240.845" y="267.946" width="86.3553" height="89.9029" fill="white"/>
<rect x="240.845" y="267.946" width="86.3553" height="89.9029" stroke="#E8E8E8" stroke-width="0.466785"/>
<path d="M249.837 276.418V283.547H248.758V277.497H248.716L247.01 278.611V277.58L248.789 276.418H249.837ZM251.616 282.154V281.284L254.696 276.418H255.382V277.699H254.947L252.743 281.187V281.242H256.966V282.154H251.616ZM254.996 283.547V281.89L255.003 281.493V276.418H256.022V283.547H254.996Z" fill="black"/>
<rect x="327.2" y="267.946" width="86.3553" height="89.9029" fill="white"/>
<rect x="327.2" y="267.946" width="86.3553" height="89.9029" stroke="#E8E8E8" stroke-width="0.466785"/>
<path d="M336.192 276.418V283.547H335.113V277.497H335.071L333.365 278.611V277.58L335.144 276.418H336.192ZM340.474 283.644C340.037 283.644 339.645 283.561 339.297 283.394C338.951 283.224 338.675 282.992 338.469 282.698C338.262 282.403 338.152 282.066 338.138 281.688H339.182C339.208 281.994 339.343 282.246 339.589 282.443C339.835 282.641 340.13 282.739 340.474 282.739C340.747 282.739 340.99 282.677 341.201 282.551C341.415 282.424 341.582 282.248 341.702 282.026C341.825 281.803 341.887 281.549 341.887 281.263C341.887 280.973 341.824 280.715 341.699 280.487C341.574 280.26 341.401 280.081 341.18 279.951C340.962 279.821 340.712 279.755 340.428 279.753C340.213 279.753 339.996 279.79 339.777 279.864C339.559 279.938 339.383 280.036 339.248 280.156L338.263 280.01L338.664 276.418H342.583V277.34H339.558L339.332 279.335H339.374C339.513 279.2 339.697 279.088 339.927 278.997C340.159 278.907 340.407 278.861 340.672 278.861C341.106 278.861 341.492 278.965 341.831 279.171C342.172 279.378 342.44 279.66 342.635 280.017C342.833 280.372 342.93 280.781 342.928 281.242C342.93 281.704 342.826 282.116 342.614 282.478C342.406 282.84 342.116 283.126 341.744 283.335C341.375 283.541 340.952 283.644 340.474 283.644Z" fill="black"/>
<rect x="413.555" y="267.946" width="86.3553" height="89.9029" fill="white"/>
<rect x="413.555" y="267.946" width="86.3553" height="89.9029" stroke="#E8E8E8" stroke-width="0.466785"/>
<path d="M422.547 276.418V283.547H421.468V277.497H421.426L419.721 278.611V277.58L421.5 276.418H422.547ZM426.965 283.644C426.647 283.64 426.333 283.582 426.025 283.47C425.718 283.359 425.44 283.173 425.189 282.913C424.939 282.653 424.738 282.304 424.587 281.866C424.439 281.427 424.364 280.879 424.364 280.223C424.364 279.601 424.426 279.048 424.549 278.566C424.674 278.083 424.854 277.676 425.088 277.344C425.323 277.01 425.606 276.755 425.938 276.581C426.27 276.407 426.642 276.32 427.055 276.32C427.48 276.32 427.857 276.404 428.187 276.571C428.516 276.738 428.783 276.969 428.987 277.264C429.194 277.558 429.325 277.894 429.38 278.27H428.319C428.247 277.973 428.104 277.73 427.891 277.542C427.677 277.354 427.399 277.26 427.055 277.26C426.533 277.26 426.126 277.488 425.833 277.942C425.543 278.397 425.397 279.03 425.395 279.84H425.447C425.57 279.638 425.721 279.466 425.899 279.324C426.081 279.181 426.282 279.07 426.505 278.994C426.73 278.915 426.967 278.875 427.215 278.875C427.628 278.875 428.002 278.976 428.336 279.178C428.673 279.378 428.941 279.654 429.14 280.007C429.34 280.359 429.44 280.763 429.44 281.218C429.44 281.673 429.336 282.085 429.13 282.454C428.926 282.823 428.638 283.115 428.267 283.331C427.895 283.545 427.461 283.649 426.965 283.644ZM426.961 282.739C427.235 282.739 427.48 282.672 427.696 282.537C427.912 282.403 428.082 282.222 428.207 281.994C428.333 281.767 428.395 281.513 428.395 281.232C428.395 280.958 428.334 280.709 428.211 280.484C428.09 280.258 427.923 280.08 427.71 279.948C427.498 279.815 427.257 279.749 426.986 279.749C426.779 279.749 426.588 279.789 426.411 279.867C426.237 279.946 426.084 280.055 425.952 280.195C425.819 280.334 425.715 280.494 425.638 280.675C425.564 280.854 425.527 281.043 425.527 281.242C425.527 281.509 425.589 281.756 425.712 281.984C425.837 282.211 426.007 282.395 426.223 282.534C426.441 282.671 426.687 282.739 426.961 282.739Z" fill="black"/>
<rect x="68.1342" y="357.848" width="86.3553" height="89.9029" fill="white"/>
<rect x="68.1342" y="357.848" width="86.3553" height="89.9029" stroke="#E8E8E8" stroke-width="0.466785"/>
<rect x="154.49" y="357.848" width="86.3553" height="89.9029" fill="white"/>
<rect x="154.49" y="357.848" width="86.3553" height="89.9029" stroke="#E8E8E8" stroke-width="0.466785"/>
<rect x="240.845" y="357.848" width="86.3553" height="89.9029" fill="white"/>
<rect x="240.845" y="357.848" width="86.3553" height="89.9029" stroke="#E8E8E8" stroke-width="0.466785"/>
<rect x="327.2" y="357.848" width="86.3553" height="89.9029" fill="white"/>
<rect x="327.2" y="357.848" width="86.3553" height="89.9029" stroke="#E8E8E8" stroke-width="0.466785"/>
<rect x="413.555" y="357.848" width="86.3553" height="89.9029" fill="white"/>
<rect x="413.555" y="357.848" width="86.3553" height="89.9029" stroke="#E8E8E8" stroke-width="0.466785"/>
</g>
</g>
<defs>
<filter id="filter0_d_8083_545" x="67.434" y="33" width="605.887" height="505.821" filterUnits="userSpaceOnUse" color-interpolation-filters="sRGB">
<feFlood flood-opacity="0" result="BackgroundImageFix"/>
<feColorMatrix in="SourceAlpha" type="matrix" values="0 0 0 0 0 0 0 0 0 0 0 0 0 0 0 0 0 0 127 0" result="hardAlpha"/>
<feOffset dy="0.466785"/>
<feGaussianBlur stdDeviation="0.233393"/>
<feColorMatrix type="matrix" values="0 0 0 0 0 0 0 0 0 0 0 0 0 0 0 0 0 0 0.12 0"/>
<feBlend mode="normal" in2="BackgroundImageFix" result="effect1_dropShadow_8083_545"/>
<feBlend mode="normal" in="SourceGraphic" in2="effect1_dropShadow_8083_545" result="shape"/>
</filter>
<clipPath id="clip0_8083_545">
<rect x="0.666656" y="0.800049" width="484" height="360" rx="16" fill="white"/>
</clipPath>
</defs>
</svg>
