<svg width="1440" height="563" viewBox="0 0 1440 563" fill="none" xmlns="http://www.w3.org/2000/svg">
<g opacity="0.32">
<path opacity="0.2" d="M-127.533 -121.893H-167.892V-81.5339M-127.533 -121.893V-81.5339M-127.533 -121.893H-87.1743M-127.533 -81.5339H-167.892M-127.533 -81.5339V-41.1751M-127.533 -81.5339H-87.1743M-167.892 -81.5339V-41.1751M-127.533 -41.1751H-167.892M-127.533 -41.1751V-0.816415M-127.533 -41.1751H-87.1743M-167.892 -41.1751V-0.816415M-127.533 -0.816415H-167.892M-127.533 -0.816415V39.5423M-127.533 -0.816415H-87.1743M-167.892 -0.816415V39.5423M-127.533 39.5423H-167.892M-127.533 39.5423V79.901M-127.533 39.5423H-87.1743M-167.892 39.5423V79.901M-127.533 79.901H-167.892M-127.533 79.901V120.26M-127.533 79.901H-87.1743M-167.892 79.901V120.26M-127.533 120.26H-167.892M-127.533 120.26V160.618M-127.533 120.26H-87.1743M-167.892 120.26V160.618M-127.533 160.618H-167.892M-127.533 160.618V200.977M-127.533 160.618H-87.1743M-167.892 160.618V200.977M-127.533 200.977H-167.892M-127.533 200.977V241.336M-127.533 200.977H-87.1743M-167.892 200.977V241.336M-127.533 241.336H-167.892M-127.533 241.336V281.695M-127.533 241.336H-87.1743M-167.892 241.336V281.695M-127.533 281.695H-167.892M-127.533 281.695V322.053M-127.533 281.695H-87.1743M-167.892 281.695V322.053M-127.533 322.053H-167.892M-127.533 322.053V362.412M-127.533 322.053H-87.1743M-167.892 322.053V362.412M-127.533 362.412H-167.892M-127.533 362.412V402.771M-127.533 362.412H-87.1743M-167.892 362.412V402.771M-127.533 402.771H-167.892M-127.533 402.771V443.13M-127.533 402.771H-87.1743M-167.892 402.771V443.13M-127.533 443.13H-167.892M-127.533 443.13V483.488M-127.533 443.13H-87.1743M-167.892 443.13V483.488M-127.533 483.488H-167.892M-127.533 483.488V523.847M-127.533 483.488H-87.1743M-167.892 483.488V523.847M-127.533 523.847H-167.892M-127.533 523.847V564.206M-127.533 523.847H-87.1743M-167.892 523.847V564.206M-127.533 564.206H-167.892M-127.533 564.206V604.564M-127.533 564.206H-87.1743M-167.892 564.206V604.564M-127.533 604.564H-167.892M-127.533 604.564V644.923M-127.533 604.564H-87.1743M-167.892 604.564V644.923M-127.533 644.923H-167.892M-127.533 644.923V685.282M-127.533 644.923H-87.1743M-167.892 644.923V685.282H-127.533M-127.533 685.282H-87.1743M-87.1743 -121.893V-81.5339M-87.1743 -121.893H-46.8156M-87.1743 -81.5339V-41.1751M-87.1743 -81.5339H-46.8156M-87.1743 -41.1751V-0.816415M-87.1743 -41.1751H-46.8156M-87.1743 -0.816415V39.5423M-87.1743 -0.816415H-46.8156M-87.1743 39.5423V79.901M-87.1743 39.5423H-46.8156M-87.1743 79.901V120.26M-87.1743 79.901H-46.8156M-87.1743 120.26V160.618M-87.1743 120.26H-46.8156M-87.1743 160.618V200.977M-87.1743 160.618H-46.8156M-87.1743 200.977V241.336M-87.1743 200.977H-46.8156M-87.1743 241.336V281.695M-87.1743 241.336H-46.8156M-87.1743 281.695V322.053M-87.1743 281.695H-46.8156M-87.1743 322.053V362.412M-87.1743 322.053H-46.8156M-87.1743 362.412V402.771M-87.1743 362.412H-46.8156M-87.1743 402.771V443.13M-87.1743 402.771H-46.8156M-87.1743 443.13V483.488M-87.1743 443.13H-46.8156M-87.1743 483.488V523.847M-87.1743 483.488H-46.8156M-87.1743 523.847V564.206M-87.1743 523.847H-46.8156M-87.1743 564.206V604.564M-87.1743 564.206H-46.8156M-87.1743 604.564V644.923M-87.1743 604.564H-46.8156M-87.1743 644.923V685.282M-87.1743 644.923H-46.8156M-87.1743 685.282H-46.8156M-46.8156 -121.893V-81.5339M-46.8156 -121.893H-6.45686M-46.8156 -81.5339V-41.1751M-46.8156 -81.5339H-6.45686M-46.8156 -41.1751V-0.816415M-46.8156 -41.1751H-6.45686M-46.8156 -0.816415V39.5423M-46.8156 -0.816415H-6.45686M-46.8156 39.5423V79.901M-46.8156 39.5423H-6.45686M-46.8156 79.901V120.26M-46.8156 79.901H-6.45686M-46.8156 120.26V160.618M-46.8156 120.26H-6.45686M-46.8156 160.618V200.977M-46.8156 160.618H-6.45686M-46.8156 200.977V241.336M-46.8156 200.977H-6.45686M-46.8156 241.336V281.695M-46.8156 241.336H-6.45686M-46.8156 281.695V322.053M-46.8156 281.695H-6.45686M-46.8156 322.053V362.412M-46.8156 322.053H-6.45686M-46.8156 362.412V402.771M-46.8156 362.412H-6.45686M-46.8156 402.771V443.13M-46.8156 402.771H-6.45686M-46.8156 443.13V483.488M-46.8156 443.13H-6.45686M-46.8156 483.488V523.847M-46.8156 483.488H-6.45686M-46.8156 523.847V564.206M-46.8156 523.847H-6.45686M-46.8156 564.206V604.564M-46.8156 564.206H-6.45686M-46.8156 604.564V644.923M-46.8156 604.564H-6.45686M-46.8156 644.923V685.282M-46.8156 644.923H-6.45686M-46.8156 685.282H-6.45686M-6.45686 -121.893V-81.5339M-6.45686 -121.893H33.9018M-6.45686 -81.5339V-41.1751M-6.45686 -81.5339H33.9018M-6.45686 -41.1751V-0.816415M-6.45686 -41.1751H33.9018M-6.45686 -0.816415V39.5423M-6.45686 -0.816415H33.9018M-6.45686 39.5423V79.901M-6.45686 39.5423H33.9018M-6.45686 79.901V120.26M-6.45686 79.901H33.9018M-6.45686 120.26V160.618M-6.45686 120.26H33.9018M-6.45686 160.618V200.977M-6.45686 160.618H33.9018M-6.45686 200.977V241.336M-6.45686 200.977H33.9018M-6.45686 241.336V281.695M-6.45686 241.336H33.9018M-6.45686 281.695V322.053M-6.45686 281.695H33.9018M-6.45686 322.053V362.412M-6.45686 322.053H33.9018M-6.45686 362.412V402.771M-6.45686 362.412H33.9018M-6.45686 402.771V443.13M-6.45686 402.771H33.9018M-6.45686 443.13V483.488M-6.45686 443.13H33.9018M-6.45686 483.488V523.847M-6.45686 483.488H33.9018M-6.45686 523.847V564.206M-6.45686 523.847H33.9018M-6.45686 564.206V604.564M-6.45686 564.206H33.9018M-6.45686 604.564V644.923M-6.45686 604.564H33.9018M-6.45686 644.923V685.282M-6.45686 644.923H33.9018M-6.45686 685.282H33.9018M33.9018 -121.893V-81.5339M33.9018 -121.893H74.2606M33.9018 -81.5339V-41.1751M33.9018 -81.5339H74.2606M33.9018 -41.1751V-0.816415M33.9018 -41.1751H74.2606M33.9018 -0.816415V39.5423M33.9018 -0.816415H74.2606M33.9018 39.5423V79.901M33.9018 39.5423H74.2606M33.9018 79.901V120.26M33.9018 79.901H74.2606M33.9018 120.26V160.618M33.9018 120.26H74.2606M33.9018 160.618V200.977M33.9018 160.618H74.2606M33.9018 200.977V241.336M33.9018 200.977H74.2606M33.9018 241.336V281.695M33.9018 241.336H74.2606M33.9018 281.695V322.053M33.9018 281.695H74.2606M33.9018 322.053V362.412M33.9018 322.053H74.2606M33.9018 362.412V402.771M33.9018 362.412H74.2606M33.9018 402.771V443.13M33.9018 402.771H74.2606M33.9018 443.13V483.488M33.9018 443.13H74.2606M33.9018 483.488V523.847M33.9018 483.488H74.2606M33.9018 523.847V564.206M33.9018 523.847H74.2606M33.9018 564.206V604.564M33.9018 564.206H74.2606M33.9018 604.564V644.923M33.9018 604.564H74.2606M33.9018 644.923V685.282M33.9018 644.923H74.2606M33.9018 685.282H74.2606M74.2606 -121.893V-81.5339M74.2606 -121.893H114.619M74.2606 -81.5339V-41.1751M74.2606 -81.5339H114.619M74.2606 -41.1751V-0.816415M74.2606 -41.1751H114.619M74.2606 -0.816415V39.5423M74.2606 -0.816415H114.619M74.2606 39.5423V79.901M74.2606 39.5423H114.619M74.2606 79.901V120.26M74.2606 79.901H114.619M74.2606 120.26V160.618M74.2606 120.26H114.619M74.2606 160.618V200.977M74.2606 160.618H114.619M74.2606 200.977V241.336M74.2606 200.977H114.619M74.2606 241.336V281.695M74.2606 241.336H114.619M74.2606 281.695V322.053M74.2606 281.695H114.619M74.2606 322.053V362.412M74.2606 322.053H114.619M74.2606 362.412V402.771M74.2606 362.412H114.619M74.2606 402.771V443.13M74.2606 402.771H114.619M74.2606 443.13V483.488M74.2606 443.13H114.619M74.2606 483.488V523.847M74.2606 483.488H114.619M74.2606 523.847V564.206M74.2606 523.847H114.619M74.2606 564.206V604.564M74.2606 564.206H114.619M74.2606 604.564V644.923M74.2606 604.564H114.619M74.2606 644.923V685.282M74.2606 644.923H114.619M74.2606 685.282H114.619M114.619 -121.893V-81.5339M114.619 -121.893H154.978M114.619 -81.5339V-41.1751M114.619 -81.5339H154.978M114.619 -41.1751V-0.816415M114.619 -41.1751H154.978M114.619 -0.816415V39.5423M114.619 -0.816415H154.978M114.619 39.5423V79.901M114.619 39.5423H154.978M114.619 79.901V120.26M114.619 79.901H154.978M114.619 120.26V160.618M114.619 120.26H154.978M114.619 160.618V200.977M114.619 160.618H154.978M114.619 200.977V241.336M114.619 200.977H154.978M114.619 241.336V281.695M114.619 241.336H154.978M114.619 281.695V322.053M114.619 281.695H154.978M114.619 322.053V362.412M114.619 322.053H154.978M114.619 362.412V402.771M114.619 362.412H154.978M114.619 402.771V443.13M114.619 402.771H154.978M114.619 443.13V483.488M114.619 443.13H154.978M114.619 483.488V523.847M114.619 483.488H154.978M114.619 523.847V564.206M114.619 523.847H154.978M114.619 564.206V604.564M114.619 564.206H154.978M114.619 604.564V644.923M114.619 604.564H154.978M114.619 644.923V685.282M114.619 644.923H154.978M114.619 685.282H154.978M154.978 -121.893V-81.5339M154.978 -121.893H195.337M154.978 -81.5339V-41.1751M154.978 -81.5339H195.337M154.978 -41.1751V-0.816415M154.978 -41.1751H195.337M154.978 -0.816415V39.5423M154.978 -0.816415H195.337M154.978 39.5423V79.901M154.978 39.5423H195.337M154.978 79.901V120.26M154.978 79.901H195.337M154.978 120.26V160.618M154.978 120.26H195.337M154.978 160.618V200.977M154.978 160.618H195.337M154.978 200.977V241.336M154.978 200.977H195.337M154.978 241.336V281.695M154.978 241.336H195.337M154.978 281.695V322.053M154.978 281.695H195.337M154.978 322.053V362.412M154.978 322.053H195.337M154.978 362.412V402.771M154.978 362.412H195.337M154.978 402.771V443.13M154.978 402.771H195.337M154.978 443.13V483.488M154.978 443.13H195.337M154.978 483.488V523.847M154.978 483.488H195.337M154.978 523.847V564.206M154.978 523.847H195.337M154.978 564.206V604.564M154.978 564.206H195.337M154.978 604.564V644.923M154.978 604.564H195.337M154.978 644.923V685.282M154.978 644.923H195.337M154.978 685.282H195.337M195.337 -121.893V-81.5339M195.337 -121.893H235.695M195.337 -81.5339V-41.1751M195.337 -81.5339H235.695M195.337 -41.1751V-0.816415M195.337 -41.1751H235.695M195.337 -0.816415V39.5423M195.337 -0.816415H235.695M195.337 39.5423V79.901M195.337 39.5423H235.695M195.337 79.901V120.26M195.337 79.901H235.695M195.337 120.26V160.618M195.337 120.26H235.695M195.337 160.618V200.977M195.337 160.618H235.695M195.337 200.977V241.336M195.337 200.977H235.695M195.337 241.336V281.695M195.337 241.336H235.695M195.337 281.695V322.053M195.337 281.695H235.695M195.337 322.053V362.412M195.337 322.053H235.695M195.337 362.412V402.771M195.337 362.412H235.695M195.337 402.771V443.13M195.337 402.771H235.695M195.337 443.13V483.488M195.337 443.13H235.695M195.337 483.488V523.847M195.337 483.488H235.695M195.337 523.847V564.206M195.337 523.847H235.695M195.337 564.206V604.564M195.337 564.206H235.695M195.337 604.564V644.923M195.337 604.564H235.695M195.337 644.923V685.282M195.337 644.923H235.695M195.337 685.282H235.695M235.695 -121.893V-81.5339M235.695 -121.893H276.054M235.695 -81.5339V-41.1751M235.695 -81.5339H276.054M235.695 -41.1751V-0.816415M235.695 -41.1751H276.054M235.695 -0.816415V39.5423M235.695 -0.816415H276.054M235.695 39.5423V79.901M235.695 39.5423H276.054M235.695 79.901V120.26M235.695 79.901H276.054M235.695 120.26V160.618M235.695 120.26H276.054M235.695 160.618V200.977M235.695 160.618H276.054M235.695 200.977V241.336M235.695 200.977H276.054M235.695 241.336V281.695M235.695 241.336H276.054M235.695 281.695V322.053M235.695 281.695H276.054M235.695 322.053V362.412M235.695 322.053H276.054M235.695 362.412V402.771M235.695 362.412H276.054M235.695 402.771V443.13M235.695 402.771H276.054M235.695 443.13V483.488M235.695 443.13H276.054M235.695 483.488V523.847M235.695 483.488H276.054M235.695 523.847V564.206M235.695 523.847H276.054M235.695 564.206V604.564M235.695 564.206H276.054M235.695 604.564V644.923M235.695 604.564H276.054M235.695 644.923V685.282M235.695 644.923H276.054M235.695 685.282H276.054M276.054 -121.893V-81.5339M276.054 -121.893H316.413M276.054 -81.5339V-41.1751M276.054 -81.5339H316.413M276.054 -41.1751V-0.816415M276.054 -41.1751H316.413M276.054 -0.816415V39.5423M276.054 -0.816415H316.413M276.054 39.5423V79.901M276.054 39.5423H316.413M276.054 79.901V120.26M276.054 79.901H316.413M276.054 120.26V160.618M276.054 120.26H316.413M276.054 160.618V200.977M276.054 160.618H316.413M276.054 200.977V241.336M276.054 200.977H316.413M276.054 241.336V281.695M276.054 241.336H316.413M276.054 281.695V322.053M276.054 281.695H316.413M276.054 322.053V362.412M276.054 322.053H316.413M276.054 362.412V402.771M276.054 362.412H316.413M276.054 402.771V443.13M276.054 402.771H316.413M276.054 443.13V483.488M276.054 443.13H316.413M276.054 483.488V523.847M276.054 483.488H316.413M276.054 523.847V564.206M276.054 523.847H316.413M276.054 564.206V604.564M276.054 564.206H316.413M276.054 604.564V644.923M276.054 604.564H316.413M276.054 644.923V685.282M276.054 644.923H316.413M276.054 685.282H316.413M316.413 -121.893V-81.5339M316.413 -121.893H356.772M316.413 -81.5339V-41.1751M316.413 -81.5339H356.772M316.413 -41.1751V-0.816415M316.413 -41.1751H356.772M316.413 -0.816415V39.5423M316.413 -0.816415H356.772M316.413 39.5423V79.901M316.413 39.5423H356.772M316.413 79.901V120.26M316.413 79.901H356.772M316.413 120.26V160.618M316.413 120.26H356.772M316.413 160.618V200.977M316.413 160.618H356.772M316.413 200.977V241.336M316.413 200.977H356.772M316.413 241.336V281.695M316.413 241.336H356.772M316.413 281.695V322.053M316.413 281.695H356.772M316.413 322.053V362.412M316.413 322.053H356.772M316.413 362.412V402.771M316.413 362.412H356.772M316.413 402.771V443.13M316.413 402.771H356.772M316.413 443.13V483.488M316.413 443.13H356.772M316.413 483.488V523.847M316.413 483.488H356.772M316.413 523.847V564.206M316.413 523.847H356.772M316.413 564.206V604.564M316.413 564.206H356.772M316.413 604.564V644.923M316.413 604.564H356.772M316.413 644.923V685.282M316.413 644.923H356.772M316.413 685.282H356.772M356.772 -121.893V-81.5339M356.772 -121.893H397.13M356.772 -81.5339V-41.1751M356.772 -81.5339H397.13M356.772 -41.1751V-0.816415M356.772 -41.1751H397.13M356.772 -0.816415V39.5423M356.772 -0.816415H397.13M356.772 39.5423V79.901M356.772 39.5423H397.13M356.772 79.901V120.26M356.772 79.901H397.13M356.772 120.26V160.618M356.772 120.26H397.13M356.772 160.618V200.977M356.772 160.618H397.13M356.772 200.977V241.336M356.772 200.977H397.13M356.772 241.336V281.695M356.772 241.336H397.13M356.772 281.695V322.053M356.772 281.695H397.13M356.772 322.053V362.412M356.772 322.053H397.13M356.772 362.412V402.771M356.772 362.412H397.13M356.772 402.771V443.13M356.772 402.771H397.13M356.772 443.13V483.488M356.772 443.13H397.13M356.772 483.488V523.847M356.772 483.488H397.13M356.772 523.847V564.206M356.772 523.847H397.13M356.772 564.206V604.564M356.772 564.206H397.13M356.772 604.564V644.923M356.772 604.564H397.13M356.772 644.923V685.282M356.772 644.923H397.13M356.772 685.282H397.13M397.13 -121.893V-81.5339M397.13 -121.893H437.489M397.13 -81.5339V-41.1751M397.13 -81.5339H437.489M397.13 -41.1751V-0.816415M397.13 -41.1751H437.489M397.13 -0.816415V39.5423M397.13 -0.816415H437.489M397.13 39.5423V79.901M397.13 39.5423H437.489M397.13 79.901V120.26M397.13 79.901H437.489M397.13 120.26V160.618M397.13 120.26H437.489M397.13 160.618V200.977M397.13 160.618H437.489M397.13 200.977V241.336M397.13 200.977H437.489M397.13 241.336V281.695M397.13 241.336H437.489M397.13 281.695V322.053M397.13 281.695H437.489M397.13 322.053V362.412M397.13 322.053H437.489M397.13 362.412V402.771M397.13 362.412H437.489M397.13 402.771V443.13M397.13 402.771H437.489M397.13 443.13V483.488M397.13 443.13H437.489M397.13 483.488V523.847M397.13 483.488H437.489M397.13 523.847V564.206M397.13 523.847H437.489M397.13 564.206V604.564M397.13 564.206H437.489M397.13 604.564V644.923M397.13 604.564H437.489M397.13 644.923V685.282M397.13 644.923H437.489M397.13 685.282H437.489M437.489 -121.893V-81.5339M437.489 -121.893H477.848M437.489 -81.5339V-41.1751M437.489 -81.5339H477.848M437.489 -41.1751V-0.816415M437.489 -41.1751H477.848M437.489 -0.816415V39.5423M437.489 -0.816415H477.848M437.489 39.5423V79.901M437.489 39.5423H477.848M437.489 79.901V120.26M437.489 79.901H477.848M437.489 120.26V160.618M437.489 120.26H477.848M437.489 160.618V200.977M437.489 160.618H477.848M437.489 200.977V241.336M437.489 200.977H477.848M437.489 241.336V281.695M437.489 241.336H477.848M437.489 281.695V322.053M437.489 281.695H477.848M437.489 322.053V362.412M437.489 322.053H477.848M437.489 362.412V402.771M437.489 362.412H477.848M437.489 402.771V443.13M437.489 402.771H477.848M437.489 443.13V483.488M437.489 443.13H477.848M437.489 483.488V523.847M437.489 483.488H477.848M437.489 523.847V564.206M437.489 523.847H477.848M437.489 564.206V604.564M437.489 564.206H477.848M437.489 604.564V644.923M437.489 604.564H477.848M437.489 644.923V685.282M437.489 644.923H477.848M437.489 685.282H477.848M477.848 -121.893V-81.5339M477.848 -121.893H518.206M477.848 -81.5339V-41.1751M477.848 -81.5339H518.206M477.848 -41.1751V-0.816415M477.848 -41.1751H518.206M477.848 -0.816415V39.5423M477.848 -0.816415H518.206M477.848 39.5423V79.901M477.848 39.5423H518.206M477.848 79.901V120.26M477.848 79.901H518.206M477.848 120.26V160.618M477.848 120.26H518.206M477.848 160.618V200.977M477.848 160.618H518.206M477.848 200.977V241.336M477.848 200.977H518.206M477.848 241.336V281.695M477.848 241.336H518.206M477.848 281.695V322.053M477.848 281.695H518.206M477.848 322.053V362.412M477.848 322.053H518.206M477.848 362.412V402.771M477.848 362.412H518.206M477.848 402.771V443.13M477.848 402.771H518.206M477.848 443.13V483.488M477.848 443.13H518.206M477.848 483.488V523.847M477.848 483.488H518.206M477.848 523.847V564.206M477.848 523.847H518.206M477.848 564.206V604.564M477.848 564.206H518.206M477.848 604.564V644.923M477.848 604.564H518.206M477.848 644.923V685.282M477.848 644.923H518.206M477.848 685.282H518.206M518.206 -121.893V-81.5339M518.206 -121.893H558.565M518.206 -81.5339V-41.1751M518.206 -81.5339H558.565M518.206 -41.1751V-0.816415M518.206 -41.1751H558.565M518.206 -0.816415V39.5423M518.206 -0.816415H558.565M518.206 39.5423V79.901M518.206 39.5423H558.565M518.206 79.901V120.26M518.206 79.901H558.565M518.206 120.26V160.618M518.206 120.26H558.565M518.206 160.618V200.977M518.206 160.618H558.565M518.206 200.977V241.336M518.206 200.977H558.565M518.206 241.336V281.695M518.206 241.336H558.565M518.206 281.695V322.053M518.206 281.695H558.565M518.206 322.053V362.412M518.206 322.053H558.565M518.206 362.412V402.771M518.206 362.412H558.565M518.206 402.771V443.13M518.206 402.771H558.565M518.206 443.13V483.488M518.206 443.13H558.565M518.206 483.488V523.847M518.206 483.488H558.565M518.206 523.847V564.206M518.206 523.847H558.565M518.206 564.206V604.564M518.206 564.206H558.565M518.206 604.564V644.923M518.206 604.564H558.565M518.206 644.923V685.282M518.206 644.923H558.565M518.206 685.282H558.565M558.565 -121.893V-81.5339M558.565 -121.893H598.924M558.565 -81.5339V-41.1751M558.565 -81.5339H598.924M558.565 -41.1751V-0.816415M558.565 -41.1751H598.924M558.565 -0.816415V39.5423M558.565 -0.816415H598.924M558.565 39.5423V79.901M558.565 39.5423H598.924M558.565 79.901V120.26M558.565 79.901H598.924M558.565 120.26V160.618M558.565 120.26H598.924M558.565 160.618V200.977M558.565 160.618H598.924M558.565 200.977V241.336M558.565 200.977H598.924M558.565 241.336V281.695M558.565 241.336H598.924M558.565 281.695V322.053M558.565 281.695H598.924M558.565 322.053V362.412M558.565 322.053H598.924M558.565 362.412V402.771M558.565 362.412H598.924M558.565 402.771V443.13M558.565 402.771H598.924M558.565 443.13V483.488M558.565 443.13H598.924M558.565 483.488V523.847M558.565 483.488H598.924M558.565 523.847V564.206M558.565 523.847H598.924M558.565 564.206V604.564M558.565 564.206H598.924M558.565 604.564V644.923M558.565 604.564H598.924M558.565 644.923V685.282M558.565 644.923H598.924M558.565 685.282H598.924M598.924 -121.893V-81.5339M598.924 -121.893H639.283M598.924 -81.5339V-41.1751M598.924 -81.5339H639.283M598.924 -41.1751V-0.816415M598.924 -41.1751H639.283M598.924 -0.816415V39.5423M598.924 -0.816415H639.283M598.924 39.5423V79.901M598.924 39.5423H639.283M598.924 79.901V120.26M598.924 79.901H639.283M598.924 120.26V160.618M598.924 120.26H639.283M598.924 160.618V200.977M598.924 160.618H639.283M598.924 200.977V241.336M598.924 200.977H639.283M598.924 241.336V281.695M598.924 241.336H639.283M598.924 281.695V322.053M598.924 281.695H639.283M598.924 322.053V362.412M598.924 322.053H639.283M598.924 362.412V402.771M598.924 362.412H639.283M598.924 402.771V443.13M598.924 402.771H639.283M598.924 443.13V483.488M598.924 443.13H639.283M598.924 483.488V523.847M598.924 483.488H639.283M598.924 523.847V564.206M598.924 523.847H639.283M598.924 564.206V604.564M598.924 564.206H639.283M598.924 604.564V644.923M598.924 604.564H639.283M598.924 644.923V685.282M598.924 644.923H639.283M598.924 685.282H639.283M639.283 -121.893V-81.5339M639.283 -121.893H679.641M639.283 -81.5339V-41.1751M639.283 -81.5339H679.641M639.283 -41.1751V-0.816415M639.283 -41.1751H679.641M639.283 -0.816415V39.5423M639.283 -0.816415H679.641M639.283 39.5423V79.901M639.283 39.5423H679.641M639.283 79.901V120.26M639.283 79.901H679.641M639.283 120.26V160.618M639.283 120.26H679.641M639.283 160.618V200.977M639.283 160.618H679.641M639.283 200.977V241.336M639.283 200.977H679.641M639.283 241.336V281.695M639.283 241.336H679.641M639.283 281.695V322.053M639.283 281.695H679.641M639.283 322.053V362.412M639.283 322.053H679.641M639.283 362.412V402.771M639.283 362.412H679.641M639.283 402.771V443.13M639.283 402.771H679.641M639.283 443.13V483.488M639.283 443.13H679.641M639.283 483.488V523.847M639.283 483.488H679.641M639.283 523.847V564.206M639.283 523.847H679.641M639.283 564.206V604.564M639.283 564.206H679.641M639.283 604.564V644.923M639.283 604.564H679.641M639.283 644.923V685.282M639.283 644.923H679.641M639.283 685.282H679.641M679.641 -121.893V-81.5339M679.641 -121.893H720M679.641 -81.5339V-41.1751M679.641 -81.5339H720M679.641 -41.1751V-0.816415M679.641 -41.1751H720M679.641 -0.816415V39.5423M679.641 -0.816415H720M679.641 39.5423V79.901M679.641 39.5423H720M679.641 79.901V120.26M679.641 79.901H720M679.641 120.26V160.618M679.641 120.26H720M679.641 160.618V200.977M679.641 160.618H720M679.641 200.977V241.336M679.641 200.977H720M679.641 241.336V281.695M679.641 241.336H720M679.641 281.695V322.053M679.641 281.695H720M679.641 322.053V362.412M679.641 322.053H720M679.641 362.412V402.771M679.641 362.412H720M679.641 402.771V443.13M679.641 402.771H720M679.641 443.13V483.488M679.641 443.13H720M679.641 483.488V523.847M679.641 483.488H720M679.641 523.847V564.206M679.641 523.847H720M679.641 564.206V604.564M679.641 564.206H720M679.641 604.564V644.923M679.641 604.564H720M679.641 644.923V685.282M679.641 644.923H720M679.641 685.282H720M720 -121.893V-81.5339M720 -121.893H760.359M720 -81.5339V-41.1751M720 -81.5339H760.359M720 -41.1751V-0.816415M720 -41.1751H760.359M720 -0.816415V39.5423M720 -0.816415H760.359M720 39.5423V79.901M720 39.5423H760.359M720 79.901V120.26M720 79.901H760.359M720 120.26V160.618M720 120.26H760.359M720 160.618V200.977M720 160.618H760.359M720 200.977V241.336M720 200.977H760.359M720 241.336V281.695M720 241.336H760.359M720 281.695V322.053M720 281.695H760.359M720 322.053V362.412M720 322.053H760.359M720 362.412V402.771M720 362.412H760.359M720 402.771V443.13M720 402.771H760.359M720 443.13V483.488M720 443.13H760.359M720 483.488V523.847M720 483.488H760.359M720 523.847V564.206M720 523.847H760.359M720 564.206V604.564M720 564.206H760.359M720 604.564V644.923M720 604.564H760.359M720 644.923V685.282M720 644.923H760.359M720 685.282H760.359M760.359 -121.893V-81.5339M760.359 -121.893H800.717M760.359 -81.5339V-41.1751M760.359 -81.5339H800.717M760.359 -41.1751V-0.816415M760.359 -41.1751H800.717M760.359 -0.816415V39.5423M760.359 -0.816415H800.717M760.359 39.5423V79.901M760.359 39.5423H800.717M760.359 79.901V120.26M760.359 79.901H800.717M760.359 120.26V160.618M760.359 120.26H800.717M760.359 160.618V200.977M760.359 160.618H800.717M760.359 200.977V241.336M760.359 200.977H800.717M760.359 241.336V281.695M760.359 241.336H800.717M760.359 281.695V322.053M760.359 281.695H800.717M760.359 322.053V362.412M760.359 322.053H800.717M760.359 362.412V402.771M760.359 362.412H800.717M760.359 402.771V443.13M760.359 402.771H800.717M760.359 443.13V483.488M760.359 443.13H800.717M760.359 483.488V523.847M760.359 483.488H800.717M760.359 523.847V564.206M760.359 523.847H800.717M760.359 564.206V604.564M760.359 564.206H800.717M760.359 604.564V644.923M760.359 604.564H800.717M760.359 644.923V685.282M760.359 644.923H800.717M760.359 685.282H800.717M800.717 -121.893V-81.5339M800.717 -121.893H841.076M800.717 -81.5339V-41.1751M800.717 -81.5339H841.076M800.717 -41.1751V-0.816415M800.717 -41.1751H841.076M800.717 -0.816415V39.5423M800.717 -0.816415H841.076M800.717 39.5423V79.901M800.717 39.5423H841.076M800.717 79.901V120.26M800.717 79.901H841.076M800.717 120.26V160.618M800.717 120.26H841.076M800.717 160.618V200.977M800.717 160.618H841.076M800.717 200.977V241.336M800.717 200.977H841.076M800.717 241.336V281.695M800.717 241.336H841.076M800.717 281.695V322.053M800.717 281.695H841.076M800.717 322.053V362.412M800.717 322.053H841.076M800.717 362.412V402.771M800.717 362.412H841.076M800.717 402.771V443.13M800.717 402.771H841.076M800.717 443.13V483.488M800.717 443.13H841.076M800.717 483.488V523.847M800.717 483.488H841.076M800.717 523.847V564.206M800.717 523.847H841.076M800.717 564.206V604.564M800.717 564.206H841.076M800.717 604.564V644.923M800.717 604.564H841.076M800.717 644.923V685.282M800.717 644.923H841.076M800.717 685.282H841.076M841.076 -121.893V-81.5339M841.076 -121.893H881.435M841.076 -81.5339V-41.1751M841.076 -81.5339H881.435M841.076 -41.1751V-0.816415M841.076 -41.1751H881.435M841.076 -0.816415V39.5423M841.076 -0.816415H881.435M841.076 39.5423V79.901M841.076 39.5423H881.435M841.076 79.901V120.26M841.076 79.901H881.435M841.076 120.26V160.618M841.076 120.26H881.435M841.076 160.618V200.977M841.076 160.618H881.435M841.076 200.977V241.336M841.076 200.977H881.435M841.076 241.336V281.695M841.076 241.336H881.435M841.076 281.695V322.053M841.076 281.695H881.435M841.076 322.053V362.412M841.076 322.053H881.435M841.076 362.412V402.771M841.076 362.412H881.435M841.076 402.771V443.13M841.076 402.771H881.435M841.076 443.13V483.488M841.076 443.13H881.435M841.076 483.488V523.847M841.076 483.488H881.435M841.076 523.847V564.206M841.076 523.847H881.435M841.076 564.206V604.564M841.076 564.206H881.435M841.076 604.564V644.923M841.076 604.564H881.435M841.076 644.923V685.282M841.076 644.923H881.435M841.076 685.282H881.435M881.435 -121.893V-81.5339M881.435 -121.893H921.794M881.435 -81.5339V-41.1751M881.435 -81.5339H921.794M881.435 -41.1751V-0.816415M881.435 -41.1751H921.794M881.435 -0.816415V39.5423M881.435 -0.816415H921.794M881.435 39.5423V79.901M881.435 39.5423H921.794M881.435 79.901V120.26M881.435 79.901H921.794M881.435 120.26V160.618M881.435 120.26H921.794M881.435 160.618V200.977M881.435 160.618H921.794M881.435 200.977V241.336M881.435 200.977H921.794M881.435 241.336V281.695M881.435 241.336H921.794M881.435 281.695V322.053M881.435 281.695H921.794M881.435 322.053V362.412M881.435 322.053H921.794M881.435 362.412V402.771M881.435 362.412H921.794M881.435 402.771V443.13M881.435 402.771H921.794M881.435 443.13V483.488M881.435 443.13H921.794M881.435 483.488V523.847M881.435 483.488H921.794M881.435 523.847V564.206M881.435 523.847H921.794M881.435 564.206V604.564M881.435 564.206H921.794M881.435 604.564V644.923M881.435 604.564H921.794M881.435 644.923V685.282M881.435 644.923H921.794M881.435 685.282H921.794M921.794 -121.893V-81.5339M921.794 -121.893H962.152M921.794 -81.5339V-41.1751M921.794 -81.5339H962.152M921.794 -41.1751V-0.816415M921.794 -41.1751H962.152M921.794 -0.816415V39.5423M921.794 -0.816415H962.152M921.794 39.5423V79.901M921.794 39.5423H962.152M921.794 79.901V120.26M921.794 79.901H962.152M921.794 120.26V160.618M921.794 120.26H962.152M921.794 160.618V200.977M921.794 160.618H962.152M921.794 200.977V241.336M921.794 200.977H962.152M921.794 241.336V281.695M921.794 241.336H962.152M921.794 281.695V322.053M921.794 281.695H962.152M921.794 322.053V362.412M921.794 322.053H962.152M921.794 362.412V402.771M921.794 362.412H962.152M921.794 402.771V443.13M921.794 402.771H962.152M921.794 443.13V483.488M921.794 443.13H962.152M921.794 483.488V523.847M921.794 483.488H962.152M921.794 523.847V564.206M921.794 523.847H962.152M921.794 564.206V604.564M921.794 564.206H962.152M921.794 604.564V644.923M921.794 604.564H962.152M921.794 644.923V685.282M921.794 644.923H962.152M921.794 685.282H962.152M962.152 -121.893V-81.5339M962.152 -121.893H1002.51M962.152 -81.5339V-41.1751M962.152 -81.5339H1002.51M962.152 -41.1751V-0.816415M962.152 -41.1751H1002.51M962.152 -0.816415V39.5423M962.152 -0.816415H1002.51M962.152 39.5423V79.901M962.152 39.5423H1002.51M962.152 79.901V120.26M962.152 79.901H1002.51M962.152 120.26V160.618M962.152 120.26H1002.51M962.152 160.618V200.977M962.152 160.618H1002.51M962.152 200.977V241.336M962.152 200.977H1002.51M962.152 241.336V281.695M962.152 241.336H1002.51M962.152 281.695V322.053M962.152 281.695H1002.51M962.152 322.053V362.412M962.152 322.053H1002.51M962.152 362.412V402.771M962.152 362.412H1002.51M962.152 402.771V443.13M962.152 402.771H1002.51M962.152 443.13V483.488M962.152 443.13H1002.51M962.152 483.488V523.847M962.152 483.488H1002.51M962.152 523.847V564.206M962.152 523.847H1002.51M962.152 564.206V604.564M962.152 564.206H1002.51M962.152 604.564V644.923M962.152 604.564H1002.51M962.152 644.923V685.282M962.152 644.923H1002.51M962.152 685.282H1002.51M1002.51 -121.893V-81.5339M1002.51 -121.893H1042.87M1002.51 -81.5339V-41.1751M1002.51 -81.5339H1042.87M1002.51 -41.1751V-0.816415M1002.51 -41.1751H1042.87M1002.51 -0.816415V39.5423M1002.51 -0.816415H1042.87M1002.51 39.5423V79.901M1002.51 39.5423H1042.87M1002.51 79.901V120.26M1002.51 79.901H1042.87M1002.51 120.26V160.618M1002.51 120.26H1042.87M1002.51 160.618V200.977M1002.51 160.618H1042.87M1002.51 200.977V241.336M1002.51 200.977H1042.87M1002.51 241.336V281.695M1002.51 241.336H1042.87M1002.51 281.695V322.053M1002.51 281.695H1042.87M1002.51 322.053V362.412M1002.51 322.053H1042.87M1002.51 362.412V402.771M1002.51 362.412H1042.87M1002.51 402.771V443.13M1002.51 402.771H1042.87M1002.51 443.13V483.488M1002.51 443.13H1042.87M1002.51 483.488V523.847M1002.51 483.488H1042.87M1002.51 523.847V564.206M1002.51 523.847H1042.87M1002.51 564.206V604.564M1002.51 564.206H1042.87M1002.51 604.564V644.923M1002.51 604.564H1042.87M1002.51 644.923V685.282M1002.51 644.923H1042.87M1002.51 685.282H1042.87M1042.87 -121.893V-81.5339M1042.87 -121.893H1083.23M1042.87 -81.5339V-41.1751M1042.87 -81.5339H1083.23M1042.87 -41.1751V-0.816415M1042.87 -41.1751H1083.23M1042.87 -0.816415V39.5423M1042.87 -0.816415H1083.23M1042.87 39.5423V79.901M1042.87 39.5423H1083.23M1042.87 79.901V120.26M1042.87 79.901H1083.23M1042.87 120.26V160.618M1042.87 120.26H1083.23M1042.87 160.618V200.977M1042.87 160.618H1083.23M1042.87 200.977V241.336M1042.87 200.977H1083.23M1042.87 241.336V281.695M1042.87 241.336H1083.23M1042.87 281.695V322.053M1042.87 281.695H1083.23M1042.87 322.053V362.412M1042.87 322.053H1083.23M1042.87 362.412V402.771M1042.87 362.412H1083.23M1042.87 402.771V443.13M1042.87 402.771H1083.23M1042.87 443.13V483.488M1042.87 443.13H1083.23M1042.87 483.488V523.847M1042.87 483.488H1083.23M1042.87 523.847V564.206M1042.87 523.847H1083.23M1042.87 564.206V604.564M1042.87 564.206H1083.23M1042.87 604.564V644.923M1042.87 604.564H1083.23M1042.87 644.923V685.282M1042.87 644.923H1083.23M1042.87 685.282H1083.23M1083.23 -121.893V-81.5339M1083.23 -121.893H1123.59M1083.23 -81.5339V-41.1751M1083.23 -81.5339H1123.59M1083.23 -41.1751V-0.816415M1083.23 -41.1751H1123.59M1083.23 -0.816415V39.5423M1083.23 -0.816415H1123.59M1083.23 39.5423V79.901M1083.23 39.5423H1123.59M1083.23 79.901V120.26M1083.23 79.901H1123.59M1083.23 120.26V160.618M1083.23 120.26H1123.59M1083.23 160.618V200.977M1083.23 160.618H1123.59M1083.23 200.977V241.336M1083.23 200.977H1123.59M1083.23 241.336V281.695M1083.23 241.336H1123.59M1083.23 281.695V322.053M1083.23 281.695H1123.59M1083.23 322.053V362.412M1083.23 322.053H1123.59M1083.23 362.412V402.771M1083.23 362.412H1123.59M1083.23 402.771V443.13M1083.23 402.771H1123.59M1083.23 443.13V483.488M1083.23 443.13H1123.59M1083.23 483.488V523.847M1083.23 483.488H1123.59M1083.23 523.847V564.206M1083.23 523.847H1123.59M1083.23 564.206V604.564M1083.23 564.206H1123.59M1083.23 604.564V644.923M1083.23 604.564H1123.59M1083.23 644.923V685.282M1083.23 644.923H1123.59M1083.23 685.282H1123.59M1123.59 -121.893V-81.5339M1123.59 -121.893H1163.95M1123.59 -81.5339V-41.1751M1123.59 -81.5339H1163.95M1123.59 -41.1751V-0.816415M1123.59 -41.1751H1163.95M1123.59 -0.816415V39.5423M1123.59 -0.816415H1163.95M1123.59 39.5423V79.901M1123.59 39.5423H1163.95M1123.59 79.901V120.26M1123.59 79.901H1163.95M1123.59 120.26V160.618M1123.59 120.26H1163.95M1123.59 160.618V200.977M1123.59 160.618H1163.95M1123.59 200.977V241.336M1123.59 200.977H1163.95M1123.59 241.336V281.695M1123.59 241.336H1163.95M1123.59 281.695V322.053M1123.59 281.695H1163.95M1123.59 322.053V362.412M1123.59 322.053H1163.95M1123.59 362.412V402.771M1123.59 362.412H1163.95M1123.59 402.771V443.13M1123.59 402.771H1163.95M1123.59 443.13V483.488M1123.59 443.13H1163.95M1123.59 483.488V523.847M1123.59 483.488H1163.95M1123.59 523.847V564.206M1123.59 523.847H1163.95M1123.59 564.206V604.564M1123.59 564.206H1163.95M1123.59 604.564V644.923M1123.59 604.564H1163.95M1123.59 644.923V685.282M1123.59 644.923H1163.95M1123.59 685.282H1163.95M1163.95 -121.893V-81.5339M1163.95 -121.893H1204.3M1163.95 -81.5339V-41.1751M1163.95 -81.5339H1204.3M1163.95 -41.1751V-0.816415M1163.95 -41.1751H1204.3M1163.95 -0.816415V39.5423M1163.95 -0.816415H1204.3M1163.95 39.5423V79.901M1163.95 39.5423H1204.3M1163.95 79.901V120.26M1163.95 79.901H1204.3M1163.95 120.26V160.618M1163.95 120.26H1204.3M1163.95 160.618V200.977M1163.95 160.618H1204.3M1163.95 200.977V241.336M1163.95 200.977H1204.3M1163.95 241.336V281.695M1163.95 241.336H1204.3M1163.95 281.695V322.053M1163.95 281.695H1204.3M1163.95 322.053V362.412M1163.95 322.053H1204.3M1163.95 362.412V402.771M1163.95 362.412H1204.3M1163.95 402.771V443.13M1163.95 402.771H1204.3M1163.95 443.13V483.488M1163.95 443.13H1204.3M1163.95 483.488V523.847M1163.95 483.488H1204.3M1163.95 523.847V564.206M1163.95 523.847H1204.3M1163.95 564.206V604.564M1163.95 564.206H1204.3M1163.95 604.564V644.923M1163.95 604.564H1204.3M1163.95 644.923V685.282M1163.95 644.923H1204.3M1163.95 685.282H1204.3M1204.3 -121.893V-81.5339M1204.3 -121.893H1244.66M1204.3 -81.5339V-41.1751M1204.3 -81.5339H1244.66M1204.3 -41.1751V-0.816415M1204.3 -41.1751H1244.66M1204.3 -0.816415V39.5423M1204.3 -0.816415H1244.66M1204.3 39.5423V79.901M1204.3 39.5423H1244.66M1204.3 79.901V120.26M1204.3 79.901H1244.66M1204.3 120.26V160.618M1204.3 120.26H1244.66M1204.3 160.618V200.977M1204.3 160.618H1244.66M1204.3 200.977V241.336M1204.3 200.977H1244.66M1204.3 241.336V281.695M1204.3 241.336H1244.66M1204.3 281.695V322.053M1204.3 281.695H1244.66M1204.3 322.053V362.412M1204.3 322.053H1244.66M1204.3 362.412V402.771M1204.3 362.412H1244.66M1204.3 402.771V443.13M1204.3 402.771H1244.66M1204.3 443.13V483.488M1204.3 443.13H1244.66M1204.3 483.488V523.847M1204.3 483.488H1244.66M1204.3 523.847V564.206M1204.3 523.847H1244.66M1204.3 564.206V604.564M1204.3 564.206H1244.66M1204.3 604.564V644.923M1204.3 604.564H1244.66M1204.3 644.923V685.282M1204.3 644.923H1244.66M1204.3 685.282H1244.66M1244.66 -121.893V-81.5339M1244.66 -121.893H1285.02M1244.66 -81.5339V-41.1751M1244.66 -81.5339H1285.02M1244.66 -41.1751V-0.816415M1244.66 -41.1751H1285.02M1244.66 -0.816415V39.5423M1244.66 -0.816415H1285.02M1244.66 39.5423V79.901M1244.66 39.5423H1285.02M1244.66 79.901V120.26M1244.66 79.901H1285.02M1244.66 120.26V160.618M1244.66 120.26H1285.02M1244.66 160.618V200.977M1244.66 160.618H1285.02M1244.66 200.977V241.336M1244.66 200.977H1285.02M1244.66 241.336V281.695M1244.66 241.336H1285.02M1244.66 281.695V322.053M1244.66 281.695H1285.02M1244.66 322.053V362.412M1244.66 322.053H1285.02M1244.66 362.412V402.771M1244.66 362.412H1285.02M1244.66 402.771V443.13M1244.66 402.771H1285.02M1244.66 443.13V483.488M1244.66 443.13H1285.02M1244.66 483.488V523.847M1244.66 483.488H1285.02M1244.66 523.847V564.206M1244.66 523.847H1285.02M1244.66 564.206V604.564M1244.66 564.206H1285.02M1244.66 604.564V644.923M1244.66 604.564H1285.02M1244.66 644.923V685.282M1244.66 644.923H1285.02M1244.66 685.282H1285.02M1285.02 -121.893V-81.5339M1285.02 -121.893H1325.38M1285.02 -81.5339V-41.1751M1285.02 -81.5339H1325.38M1285.02 -41.1751V-0.816415M1285.02 -41.1751H1325.38M1285.02 -0.816415V39.5423M1285.02 -0.816415H1325.38M1285.02 39.5423V79.901M1285.02 39.5423H1325.38M1285.02 79.901V120.26M1285.02 79.901H1325.38M1285.02 120.26V160.618M1285.02 120.26H1325.38M1285.02 160.618V200.977M1285.02 160.618H1325.38M1285.02 200.977V241.336M1285.02 200.977H1325.38M1285.02 241.336V281.695M1285.02 241.336H1325.38M1285.02 281.695V322.053M1285.02 281.695H1325.38M1285.02 322.053V362.412M1285.02 322.053H1325.38M1285.02 362.412V402.771M1285.02 362.412H1325.38M1285.02 402.771V443.13M1285.02 402.771H1325.38M1285.02 443.13V483.488M1285.02 443.13H1325.38M1285.02 483.488V523.847M1285.02 483.488H1325.38M1285.02 523.847V564.206M1285.02 523.847H1325.38M1285.02 564.206V604.564M1285.02 564.206H1325.38M1285.02 604.564V644.923M1285.02 604.564H1325.38M1285.02 644.923V685.282M1285.02 644.923H1325.38M1285.02 685.282H1325.38M1325.38 -121.893V-81.5339M1325.38 -121.893H1365.74M1325.38 -81.5339V-41.1751M1325.38 -81.5339H1365.74M1325.38 -41.1751V-0.816415M1325.38 -41.1751H1365.74M1325.38 -0.816415V39.5423M1325.38 -0.816415H1365.74M1325.38 39.5423V79.901M1325.38 39.5423H1365.74M1325.38 79.901V120.26M1325.38 79.901H1365.74M1325.38 120.26V160.618M1325.38 120.26H1365.74M1325.38 160.618V200.977M1325.38 160.618H1365.74M1325.38 200.977V241.336M1325.38 200.977H1365.74M1325.38 241.336V281.695M1325.38 241.336H1365.74M1325.38 281.695V322.053M1325.38 281.695H1365.74M1325.38 322.053V362.412M1325.38 322.053H1365.74M1325.38 362.412V402.771M1325.38 362.412H1365.74M1325.38 402.771V443.13M1325.38 402.771H1365.74M1325.38 443.13V483.488M1325.38 443.13H1365.74M1325.38 483.488V523.847M1325.38 483.488H1365.74M1325.38 523.847V564.206M1325.38 523.847H1365.74M1325.38 564.206V604.564M1325.38 564.206H1365.74M1325.38 604.564V644.923M1325.38 604.564H1365.74M1325.38 644.923V685.282M1325.38 644.923H1365.74M1325.38 685.282H1365.74M1365.74 -121.893V-81.5339M1365.74 -121.893H1406.1M1365.74 -81.5339V-41.1751M1365.74 -81.5339H1406.1M1365.74 -41.1751V-0.816415M1365.74 -41.1751H1406.1M1365.74 -0.816415V39.5423M1365.74 -0.816415H1406.1M1365.74 39.5423V79.901M1365.74 39.5423H1406.1M1365.74 79.901V120.26M1365.74 79.901H1406.1M1365.74 120.26V160.618M1365.74 120.26H1406.1M1365.74 160.618V200.977M1365.74 160.618H1406.1M1365.74 200.977V241.336M1365.74 200.977H1406.1M1365.74 241.336V281.695M1365.74 241.336H1406.1M1365.74 281.695V322.053M1365.74 281.695H1406.1M1365.74 322.053V362.412M1365.74 322.053H1406.1M1365.74 362.412V402.771M1365.74 362.412H1406.1M1365.74 402.771V443.13M1365.74 402.771H1406.1M1365.74 443.13V483.488M1365.74 443.13H1406.1M1365.74 483.488V523.847M1365.74 483.488H1406.1M1365.74 523.847V564.206M1365.74 523.847H1406.1M1365.74 564.206V604.564M1365.74 564.206H1406.1M1365.74 604.564V644.923M1365.74 604.564H1406.1M1365.74 644.923V685.282M1365.74 644.923H1406.1M1365.74 685.282H1406.1M1406.1 -121.893V-81.5339M1406.1 -121.893H1446.46M1406.1 -81.5339V-41.1751M1406.1 -81.5339H1446.46M1406.1 -41.1751V-0.816415M1406.1 -41.1751H1446.46M1406.1 -0.816415V39.5423M1406.1 -0.816415H1446.46M1406.1 39.5423V79.901M1406.1 39.5423H1446.46M1406.1 79.901V120.26M1406.1 79.901H1446.46M1406.1 120.26V160.618M1406.1 120.26H1446.46M1406.1 160.618V200.977M1406.1 160.618H1446.46M1406.1 200.977V241.336M1406.1 200.977H1446.46M1406.1 241.336V281.695M1406.1 241.336H1446.46M1406.1 281.695V322.053M1406.1 281.695H1446.46M1406.1 322.053V362.412M1406.1 322.053H1446.46M1406.1 362.412V402.771M1406.1 362.412H1446.46M1406.1 402.771V443.13M1406.1 402.771H1446.46M1406.1 443.13V483.488M1406.1 443.13H1446.46M1406.1 483.488V523.847M1406.1 483.488H1446.46M1406.1 523.847V564.206M1406.1 523.847H1446.46M1406.1 564.206V604.564M1406.1 564.206H1446.46M1406.1 604.564V644.923M1406.1 604.564H1446.46M1406.1 644.923V685.282M1406.1 644.923H1446.46M1406.1 685.282H1446.46M1446.46 -121.893V-81.5339M1446.46 -121.893H1486.82M1446.46 -81.5339V-41.1751M1446.46 -81.5339H1486.82M1446.46 -41.1751V-0.816415M1446.46 -41.1751H1486.82M1446.46 -0.816415V39.5423M1446.46 -0.816415H1486.82M1446.46 39.5423V79.901M1446.46 39.5423H1486.82M1446.46 79.901V120.26M1446.46 79.901H1486.82M1446.46 120.26V160.618M1446.46 120.26H1486.82M1446.46 160.618V200.977M1446.46 160.618H1486.82M1446.46 200.977V241.336M1446.46 200.977H1486.82M1446.46 241.336V281.695M1446.46 241.336H1486.82M1446.46 281.695V322.053M1446.46 281.695H1486.82M1446.46 322.053V362.412M1446.46 322.053H1486.82M1446.46 362.412V402.771M1446.46 362.412H1486.82M1446.46 402.771V443.13M1446.46 402.771H1486.82M1446.46 443.13V483.488M1446.46 443.13H1486.82M1446.46 483.488V523.847M1446.46 483.488H1486.82M1446.46 523.847V564.206M1446.46 523.847H1486.82M1446.46 564.206V604.564M1446.46 564.206H1486.82M1446.46 604.564V644.923M1446.46 604.564H1486.82M1446.46 644.923V685.282M1446.46 644.923H1486.82M1446.46 685.282H1486.82M1486.82 -121.893V-81.5339M1486.82 -121.893H1527.17M1486.82 -81.5339V-41.1751M1486.82 -81.5339H1527.17M1486.82 -41.1751V-0.816415M1486.82 -41.1751H1527.17M1486.82 -0.816415V39.5423M1486.82 -0.816415H1527.17M1486.82 39.5423V79.901M1486.82 39.5423H1527.17M1486.82 79.901V120.26M1486.82 79.901H1527.17M1486.82 120.26V160.618M1486.82 120.26H1527.17M1486.82 160.618V200.977M1486.82 160.618H1527.17M1486.82 200.977V241.336M1486.82 200.977H1527.17M1486.82 241.336V281.695M1486.82 241.336H1527.17M1486.82 281.695V322.053M1486.82 281.695H1527.17M1486.82 322.053V362.412M1486.82 322.053H1527.17M1486.82 362.412V402.771M1486.82 362.412H1527.17M1486.82 402.771V443.13M1486.82 402.771H1527.17M1486.82 443.13V483.488M1486.82 443.13H1527.17M1486.82 483.488V523.847M1486.82 483.488H1527.17M1486.82 523.847V564.206M1486.82 523.847H1527.17M1486.82 564.206V604.564M1486.82 564.206H1527.17M1486.82 604.564V644.923M1486.82 604.564H1527.17M1486.82 644.923V685.282M1486.82 644.923H1527.17M1486.82 685.282H1527.17M1527.17 -121.893V-81.5339M1527.17 -121.893H1567.53M1527.17 -81.5339V-41.1751M1527.17 -81.5339H1567.53M1527.17 -41.1751V-0.816415M1527.17 -41.1751H1567.53M1527.17 -0.816415V39.5423M1527.17 -0.816415H1567.53M1527.17 39.5423V79.901M1527.17 39.5423H1567.53M1527.17 79.901V120.26M1527.17 79.901H1567.53M1527.17 120.26V160.618M1527.17 120.26H1567.53M1527.17 160.618V200.977M1527.17 160.618H1567.53M1527.17 200.977V241.336M1527.17 200.977H1567.53M1527.17 241.336V281.695M1527.17 241.336H1567.53M1527.17 281.695V322.053M1527.17 281.695H1567.53M1527.17 322.053V362.412M1527.17 322.053H1567.53M1527.17 362.412V402.771M1527.17 362.412H1567.53M1527.17 402.771V443.13M1527.17 402.771H1567.53M1527.17 443.13V483.488M1527.17 443.13H1567.53M1527.17 483.488V523.847M1527.17 483.488H1567.53M1527.17 523.847V564.206M1527.17 523.847H1567.53M1527.17 564.206V604.564M1527.17 564.206H1567.53M1527.17 604.564V644.923M1527.17 604.564H1567.53M1527.17 644.923V685.282M1527.17 644.923H1567.53M1527.17 685.282H1567.53M1567.53 -121.893V-81.5339M1567.53 -121.893H1607.89V-81.5339M1567.53 -81.5339V-41.1751M1567.53 -81.5339H1607.89M1567.53 -41.1751V-0.816415M1567.53 -41.1751H1607.89M1567.53 -0.816415V39.5423M1567.53 -0.816415H1607.89M1567.53 39.5423V79.901M1567.53 39.5423H1607.89M1567.53 79.901V120.26M1567.53 79.901H1607.89M1567.53 120.26V160.618M1567.53 120.26H1607.89M1567.53 160.618V200.977M1567.53 160.618H1607.89M1567.53 200.977V241.336M1567.53 200.977H1607.89M1567.53 241.336V281.695M1567.53 241.336H1607.89M1567.53 281.695V322.053M1567.53 281.695H1607.89M1567.53 322.053V362.412M1567.53 322.053H1607.89M1567.53 362.412V402.771M1567.53 362.412H1607.89M1567.53 402.771V443.13M1567.53 402.771H1607.89M1567.53 443.13V483.488M1567.53 443.13H1607.89M1567.53 483.488V523.847M1567.53 483.488H1607.89M1567.53 523.847V564.206M1567.53 523.847H1607.89M1567.53 564.206V604.564M1567.53 564.206H1607.89M1567.53 604.564V644.923M1567.53 604.564H1607.89M1567.53 644.923V685.282M1567.53 644.923H1607.89M1567.53 685.282H1607.89V644.923M1607.89 -81.5339V-41.1751M1607.89 -41.1751V-0.816415M1607.89 -0.816415V39.5423M1607.89 39.5423V79.901M1607.89 79.901V120.26M1607.89 120.26V160.618M1607.89 160.618V200.977M1607.89 200.977V241.336M1607.89 241.336V281.695M1607.89 281.695V322.053M1607.89 322.053V362.412M1607.89 362.412V402.771M1607.89 402.771V443.13M1607.89 443.13V483.488M1607.89 483.488V523.847M1607.89 523.847V564.206M1607.89 564.206V604.564M1607.89 604.564V644.923" stroke="#A668FF" stroke-width="0.45693"/>
<path d="M-6.45632 27.4351V51.6503M-18.5639 39.5427H5.6513" stroke="#A668FF" stroke-width="0.91386"/>
<path d="M-6.45632 350.305V374.52M-18.5639 362.412H5.6513" stroke="#A668FF" stroke-width="0.91386"/>
<path d="M316.413 27.4351V51.6503M304.306 39.5427H328.521" stroke="#A668FF" stroke-width="0.91386"/>
<path d="M316.413 350.305V374.52M304.306 362.412H328.521" stroke="#A668FF" stroke-width="0.91386"/>
<path d="M639.281 27.4351V51.6503M627.173 39.5427H651.388" stroke="#A668FF" stroke-width="0.91386"/>
<path d="M639.281 350.305V374.52M627.173 362.412H651.388" stroke="#A668FF" stroke-width="0.91386"/>
<path d="M962.151 27.4351V51.6503M950.043 39.5427H974.258" stroke="#A668FF" stroke-width="0.91386"/>
<path d="M962.151 350.305V374.52M950.043 362.412H974.258" stroke="#A668FF" stroke-width="0.91386"/>
<path d="M1285.02 27.4351V51.6503M1272.91 39.5427H1297.13" stroke="#A668FF" stroke-width="0.91386"/>
<path d="M1285.02 350.305V374.52M1272.91 362.412H1297.13" stroke="#A668FF" stroke-width="0.91386"/>
<path d="M-6.45632 188.87V213.085M-18.5639 200.977H5.6513" stroke="#A668FF" stroke-width="0.91386"/>
<path d="M-6.45632 511.739V535.954M-18.5639 523.847H5.6513" stroke="#A668FF" stroke-width="0.91386"/>
<path d="M316.413 188.87V213.085M304.306 200.977H328.521" stroke="#A668FF" stroke-width="0.91386"/>
<path d="M316.413 511.739V535.954M304.306 523.847H328.521" stroke="#A668FF" stroke-width="0.91386"/>
<path d="M639.281 188.87V213.085M627.173 200.977H651.388" stroke="#A668FF" stroke-width="0.91386"/>
<path d="M639.281 511.739V535.954M627.173 523.847H651.388" stroke="#A668FF" stroke-width="0.91386"/>
<path d="M962.151 188.87V213.085M950.043 200.977H974.258" stroke="#A668FF" stroke-width="0.91386"/>
<path d="M962.151 511.739V535.954M950.043 523.847H974.258" stroke="#A668FF" stroke-width="0.91386"/>
<path d="M1285.02 188.87V213.085M1272.91 200.977H1297.13" stroke="#A668FF" stroke-width="0.91386"/>
<path d="M1285.02 511.739V535.954M1272.91 523.847H1297.13" stroke="#A668FF" stroke-width="0.91386"/>
<path d="M154.977 27.4351V51.6503M142.87 39.5427H167.085" stroke="#A668FF" stroke-width="0.91386"/>
<path d="M154.977 350.305V374.52M142.87 362.412H167.085" stroke="#A668FF" stroke-width="0.91386"/>
<path d="M477.847 27.4351V51.6503M465.74 39.5427H489.955" stroke="#A668FF" stroke-width="0.91386"/>
<path d="M477.847 350.305V374.52M465.74 362.412H489.955" stroke="#A668FF" stroke-width="0.91386"/>
<path d="M800.715 27.4351V51.6503M788.607 39.5427H812.822" stroke="#A668FF" stroke-width="0.91386"/>
<path d="M800.715 350.305V374.52M788.607 362.412H812.822" stroke="#A668FF" stroke-width="0.91386"/>
<path d="M1123.59 27.4351V51.6503M1111.48 39.5427H1135.69" stroke="#A668FF" stroke-width="0.91386"/>
<path d="M1123.59 350.305V374.52M1111.48 362.412H1135.69" stroke="#A668FF" stroke-width="0.91386"/>
<path d="M1446.46 27.4351V51.6503M1434.35 39.5427H1458.56" stroke="#A668FF" stroke-width="0.91386"/>
<path d="M1446.46 350.305V374.52M1434.35 362.412H1458.56" stroke="#A668FF" stroke-width="0.91386"/>
<path d="M154.977 188.87V213.085M142.87 200.977H167.085" stroke="#A668FF" stroke-width="0.91386"/>
<path d="M154.977 511.739V535.954M142.87 523.847H167.085" stroke="#A668FF" stroke-width="0.91386"/>
<path d="M477.847 188.87V213.085M465.74 200.977H489.955" stroke="#A668FF" stroke-width="0.91386"/>
<path d="M477.847 511.739V535.954M465.74 523.847H489.955" stroke="#A668FF" stroke-width="0.91386"/>
<path d="M800.715 188.87V213.085M788.607 200.977H812.822" stroke="#A668FF" stroke-width="0.91386"/>
<path d="M800.715 511.739V535.954M788.607 523.847H812.822" stroke="#A668FF" stroke-width="0.91386"/>
<path d="M1123.59 188.87V213.085M1111.48 200.977H1135.69" stroke="#A668FF" stroke-width="0.91386"/>
<path d="M1123.59 511.739V535.954M1111.48 523.847H1135.69" stroke="#A668FF" stroke-width="0.91386"/>
<path d="M1446.46 188.87V213.085M1434.35 200.977H1458.56" stroke="#A668FF" stroke-width="0.91386"/>
<path d="M1446.46 511.739V535.954M1434.35 523.847H1458.56" stroke="#A668FF" stroke-width="0.91386"/>
</g>
</svg>
